<svg width="24" height="24" viewBox="0 0 24 24" fill="none" xmlns="http://www.w3.org/2000/svg">
<path d="M2.9999 14.1001C3.15903 14.1001 3.31164 14.1633 3.42417 14.2758C3.53669 14.3884 3.5999 14.541 3.5999 14.7001V17.7001C3.5999 18.0184 3.72633 18.3236 3.95137 18.5486C4.17642 18.7737 4.48164 18.9001 4.7999 18.9001H19.1999C19.5182 18.9001 19.8234 18.7737 20.0484 18.5486C20.2735 18.3236 20.3999 18.0184 20.3999 17.7001V14.7001C20.3999 14.541 20.4631 14.3884 20.5756 14.2758C20.6882 14.1633 20.8408 14.1001 20.9999 14.1001C21.159 14.1001 21.3116 14.1633 21.4242 14.2758C21.5367 14.3884 21.5999 14.541 21.5999 14.7001V17.7001C21.5999 18.3366 21.347 18.9471 20.897 19.3972C20.4469 19.8472 19.8364 20.1001 19.1999 20.1001H4.7999C4.16338 20.1001 3.55293 19.8472 3.10285 19.3972C2.65276 18.9471 2.3999 18.3366 2.3999 17.7001V14.7001C2.3999 14.541 2.46312 14.3884 2.57564 14.2758C2.68816 14.1633 2.84077 14.1001 2.9999 14.1001Z" fill="#161516"/>
<path d="M11.5759 3.59493C11.6316 3.53899 11.6978 3.49461 11.7708 3.46433C11.8437 3.43405 11.9219 3.41846 12.0009 3.41846C12.0798 3.41846 12.158 3.43405 12.231 3.46433C12.3039 3.49461 12.3701 3.53899 12.4259 3.59493L16.0259 7.19493C16.1386 7.30765 16.2019 7.46052 16.2019 7.61993C16.2019 7.77934 16.1386 7.93221 16.0259 8.04493C15.9132 8.15765 15.7603 8.22097 15.6009 8.22097C15.4415 8.22097 15.2886 8.15765 15.1759 8.04493L12.5999 5.46793V16.0199C12.5999 16.1791 12.5367 16.3317 12.4241 16.4442C12.3116 16.5567 12.159 16.6199 11.9999 16.6199C11.8407 16.6199 11.6881 16.5567 11.5756 16.4442C11.4631 16.3317 11.3999 16.1791 11.3999 16.0199V5.46793L8.82487 8.04493C8.76906 8.10074 8.7028 8.14501 8.62988 8.17522C8.55696 8.20542 8.4788 8.22097 8.39987 8.22097C8.32094 8.22097 8.24278 8.20542 8.16986 8.17522C8.09694 8.14501 8.03068 8.10074 7.97487 8.04493C7.91906 7.98912 7.87478 7.92286 7.84458 7.84994C7.81437 7.77702 7.79883 7.69886 7.79883 7.61993C7.79883 7.541 7.81437 7.46284 7.84458 7.38992C7.87478 7.317 7.91906 7.25074 7.97487 7.19493L11.5749 3.59493H11.5759Z" fill="#161516"/>
</svg>
