<svg width="675" height="180" viewBox="0 0 675 180" fill="none" xmlns="http://www.w3.org/2000/svg">
<path d="M49.5977 68V69H50.4016L50.5743 68.2149L49.5977 68ZM0.697656 68L-0.278908 67.7848L-0.546731 69H0.697656V68ZM15.3977 1.3V0.299995H14.594L14.4211 1.08477L15.3977 1.3ZM64.2977 1.3L65.2729 1.52105L65.5497 0.299995H64.2977V1.3ZM60.8977 16.3V17.3H61.6964L61.8729 16.5211L60.8977 16.3ZM29.2977 16.3V15.3H28.4946L28.3213 16.0841L29.2977 16.3ZM26.9977 26.7L26.0213 26.4841L25.7523 27.7H26.9977V26.7ZM57.9977 26.7L58.9743 26.9149L59.2416 25.7H57.9977V26.7ZM54.6977 41.7V42.7H55.5016L55.6743 41.9149L54.6977 41.7ZM23.6977 41.7V40.7H22.8947L22.7213 41.484L23.6977 41.7ZM21.1977 53L20.2213 52.784L19.9522 54H21.1977V53ZM52.8977 53L53.8743 53.2149L54.1416 52H52.8977V53ZM49.5977 67H0.697656V69H49.5977V67ZM1.67422 68.2152L16.3742 1.51522L14.4211 1.08477L-0.278908 67.7848L1.67422 68.2152ZM15.3977 2.3H64.2977V0.299995H15.3977V2.3ZM63.3224 1.07894L59.9224 16.0789L61.8729 16.5211L65.2729 1.52105L63.3224 1.07894ZM60.8977 15.3H29.2977V17.3H60.8977V15.3ZM28.3213 16.0841L26.0213 26.4841L27.9741 26.9159L30.2741 16.5159L28.3213 16.0841ZM26.9977 27.7H57.9977V25.7H26.9977V27.7ZM57.021 26.4851L53.721 41.4851L55.6743 41.9149L58.9743 26.9149L57.021 26.4851ZM54.6977 40.7H23.6977V42.7H54.6977V40.7ZM22.7213 41.484L20.2213 52.784L22.174 53.216L24.674 41.916L22.7213 41.484ZM21.1977 54H52.8977V52H21.1977V54ZM51.921 52.7851L48.621 67.7851L50.5743 68.2149L53.8743 53.2149L51.921 52.7851ZM135.284 68V69H136.088L136.261 68.2152L135.284 68ZM118.084 68L117.108 67.7852L116.841 69H118.084V68ZM127.784 23.9L128.761 24.1148L126.928 23.3835L127.784 23.9ZM101.184 68V69H101.749L102.041 68.5165L101.184 68ZM93.5844 68L92.5971 68.159L92.7325 69H93.5844V68ZM86.4844 23.9L87.4717 23.741L85.5077 23.6852L86.4844 23.9ZM76.7844 68V69H77.5883L77.761 68.2148L76.7844 68ZM59.5844 68L58.6078 67.7848L58.34 69H59.5844V68ZM74.2844 1.3V0.299995H73.4808L73.3078 1.08477L74.2844 1.3ZM97.5844 1.3L98.5723 1.14472L98.4395 0.299995H97.5844V1.3ZM103.384 38.2L102.397 38.3553L102.825 41.0805L104.242 38.7138L103.384 38.2ZM125.484 1.3V0.299995H124.918L124.626 0.786182L125.484 1.3ZM149.984 1.3L150.961 1.51522L151.229 0.299995H149.984V1.3ZM135.284 67H118.084V69H135.284V67ZM119.061 68.2148L128.761 24.1148L126.808 23.6852L117.108 67.7852L119.061 68.2148ZM126.928 23.3835L100.328 67.4835L102.041 68.5165L128.641 24.4165L126.928 23.3835ZM101.184 67H93.5844V69H101.184V67ZM94.5717 67.841L87.4717 23.741L85.4971 24.0589L92.5971 68.159L94.5717 67.841ZM85.5077 23.6852L75.8077 67.7852L77.761 68.2148L87.461 24.1148L85.5077 23.6852ZM76.7844 67H59.5844V69H76.7844V67ZM60.5609 68.2152L75.2609 1.51522L73.3078 1.08477L58.6078 67.7848L60.5609 68.2152ZM74.2844 2.3H97.5844V0.299995H74.2844V2.3ZM96.5965 1.45527L102.397 38.3553L104.372 38.0447L98.5723 1.14472L96.5965 1.45527ZM104.242 38.7138L126.342 1.81381L124.626 0.786182L102.526 37.6862L104.242 38.7138ZM125.484 2.3H149.984V0.299995H125.484V2.3ZM149.008 1.08477L134.308 67.7848L136.261 68.2152L150.961 1.51522L149.008 1.08477ZM147.28 68L146.303 67.7848L146.035 69H147.28V68ZM161.98 1.3V0.299995H161.176L161.003 1.08477L161.98 1.3ZM210.58 6.1L209.88 6.81436L210.58 6.1ZM210.88 29.2L210.137 28.5302L210.13 28.5384L210.88 29.2ZM200.38 34.8L200.297 33.8035L200.122 35.7662L200.38 34.8ZM207.38 39.8L208.215 39.2504L207.38 39.8ZM208.58 55.1L207.646 54.7429L208.58 55.1ZM204.58 61.5L203.836 60.831L203.835 60.8325L204.58 61.5ZM197.28 66.2L197.637 67.1339L197.28 66.2ZM195.38 25.1L194.634 24.4332L194.632 24.4356L195.38 25.1ZM195.58 17.2L194.873 17.9071L194.898 17.9323L194.925 17.9557L195.58 17.2ZM176.08 15.8V14.8H175.28L175.104 15.5803L176.08 15.8ZM173.58 26.9L172.604 26.6803L172.329 27.9H173.58V26.9ZM190.58 51.6L191.251 52.3415L191.26 52.333L191.269 52.3241L190.58 51.6ZM191.18 43L190.473 43.7071L190.485 43.7193L190.497 43.7311L191.18 43ZM170.38 41.5V40.5H169.58L169.404 41.2805L170.38 41.5ZM167.68 53.5L166.704 53.2805L166.43 54.5H167.68V53.5ZM186.38 67H147.28V69H186.38V67ZM148.256 68.2152L162.956 1.51522L161.003 1.08477L146.303 67.7848L148.256 68.2152ZM161.98 2.3H196.78V0.299995H161.98V2.3ZM196.78 2.3C202.532 2.3 206.851 3.8472 209.88 6.81436L211.279 5.38564C207.775 1.95279 202.894 0.299995 196.78 0.299995V2.3ZM209.88 6.81436C212.96 9.83129 214.48 13.4092 214.48 17.6H216.48C216.48 12.8574 214.733 8.76871 211.279 5.38564L209.88 6.81436ZM214.48 17.6C214.48 21.671 213.048 25.3026 210.137 28.5302L211.622 29.8698C214.844 26.2974 216.48 22.1957 216.48 17.6H214.48ZM210.13 28.5384C207.277 31.7721 204.006 33.4944 200.297 33.8035L200.463 35.7965C204.754 35.4389 208.483 33.4279 211.63 29.8616L210.13 28.5384ZM200.122 35.7662C202.891 36.5046 205.016 38.0267 206.544 40.3496L208.215 39.2504C206.41 36.5066 203.868 34.6954 200.637 33.8338L200.122 35.7662ZM206.544 40.3496C208.105 42.7216 208.88 45.2976 208.88 48.1H210.88C210.88 44.9024 209.988 41.945 208.215 39.2504L206.544 40.3496ZM208.88 48.1C208.88 50.3765 208.469 52.5889 207.646 54.7429L209.514 55.4571C210.424 53.0777 210.88 50.6235 210.88 48.1H208.88ZM207.646 54.7429C206.827 56.8829 205.563 58.9125 203.836 60.831L205.323 62.169C207.196 60.0875 208.599 57.8504 209.514 55.4571L207.646 54.7429ZM203.835 60.8325C202.234 62.6181 199.949 64.1069 196.922 65.2661L197.637 67.1339C200.877 65.8931 203.459 64.2486 205.324 62.1675L203.835 60.8325ZM196.922 65.2661C193.926 66.4136 190.418 67 186.38 67V69C190.608 69 194.367 68.3864 197.637 67.1339L196.922 65.2661ZM190.08 27.9C192.679 27.9 194.789 27.2702 196.127 25.7644L194.632 24.4356C193.837 25.3298 192.413 25.9 190.08 25.9V27.9ZM196.125 25.7668C197.426 24.3128 198.08 22.574 198.08 20.6H196.08C196.08 22.0927 195.6 23.3539 194.634 24.4332L196.125 25.7668ZM198.08 20.6C198.08 18.9291 197.468 17.5131 196.235 16.4443L194.925 17.9557C195.692 18.6202 196.08 19.4709 196.08 20.6H198.08ZM196.287 16.4929C195.136 15.3416 193.632 14.8 191.88 14.8V16.8C193.194 16.8 194.157 17.1917 194.873 17.9071L196.287 16.4929ZM191.88 14.8H176.08V16.8H191.88V14.8ZM175.104 15.5803L172.604 26.6803L174.555 27.1197L177.055 16.0197L175.104 15.5803ZM173.58 27.9H190.08V25.9H173.58V27.9ZM184.88 54.5C187.458 54.5 189.621 53.816 191.251 52.3415L189.909 50.8585C188.738 51.9174 187.101 52.5 184.88 52.5V54.5ZM191.269 52.3241C192.868 50.8021 193.68 48.907 193.68 46.7H191.68C191.68 48.3597 191.092 49.7313 189.89 50.8759L191.269 52.3241ZM193.68 46.7C193.68 44.9265 193.09 43.4153 191.862 42.2689L190.497 43.7311C191.269 44.4514 191.68 45.4068 191.68 46.7H193.68ZM191.887 42.2929C190.666 41.0722 189.061 40.5 187.18 40.5V42.5C188.632 42.5 189.693 42.9278 190.473 43.7071L191.887 42.2929ZM187.18 40.5H170.38V42.5H187.18V40.5ZM169.404 41.2805L166.704 53.2805L168.655 53.7195L171.355 41.7195L169.404 41.2805ZM167.68 54.5H184.88V52.5H167.68V54.5ZM264.148 68V69H264.952L265.125 68.2149L264.148 68ZM215.248 68L214.272 67.7848L214.004 69H215.248V68ZM229.948 1.3V0.299995H229.145L228.972 1.08477L229.948 1.3ZM278.848 1.3L279.824 1.52105L280.1 0.299995H278.848V1.3ZM275.448 16.3V17.3H276.247L276.424 16.5211L275.448 16.3ZM243.848 16.3V15.3H243.045L242.872 16.0841L243.848 16.3ZM241.548 26.7L240.572 26.4841L240.303 27.7H241.548V26.7ZM272.548 26.7L273.525 26.9149L273.792 25.7H272.548V26.7ZM269.248 41.7V42.7H270.052L270.225 41.9149L269.248 41.7ZM238.248 41.7V40.7H237.445L237.272 41.484L238.248 41.7ZM235.748 53L234.772 52.784L234.503 54H235.748V53ZM267.448 53L268.425 53.2149L268.692 52H267.448V53ZM264.148 67H215.248V69H264.148V67ZM216.225 68.2152L230.925 1.51522L228.972 1.08477L214.272 67.7848L216.225 68.2152ZM229.948 2.3H278.848V0.299995H229.948V2.3ZM277.873 1.07894L274.473 16.0789L276.424 16.5211L279.824 1.52105L277.873 1.07894ZM275.448 15.3H243.848V17.3H275.448V15.3ZM242.872 16.0841L240.572 26.4841L242.525 26.9159L244.825 16.5159L242.872 16.0841ZM241.548 27.7H272.548V25.7H241.548V27.7ZM271.572 26.4851L268.272 41.4851L270.225 41.9149L273.525 26.9149L271.572 26.4851ZM269.248 40.7H238.248V42.7H269.248V40.7ZM237.272 41.484L234.772 52.784L236.725 53.216L239.225 41.916L237.272 41.484ZM235.748 54H267.448V52H235.748V54ZM266.472 52.7851L263.172 67.7851L265.125 68.2149L268.425 53.2149L266.472 52.7851ZM318.135 68V69H318.939L319.112 68.2149L318.135 68ZM274.135 68L273.159 67.7848L272.891 69H274.135V68ZM288.835 1.3V0.299995H288.032L287.859 1.08477L288.835 1.3ZM306.035 1.3L307.012 1.51533L307.28 0.299995H306.035V1.3ZM294.635 53L293.659 52.7847L293.391 54H294.635V53ZM321.435 53L322.412 53.2149L322.679 52H321.435V53ZM318.135 67H274.135V69H318.135V67ZM275.112 68.2152L289.812 1.51522L287.859 1.08477L273.159 67.7848L275.112 68.2152ZM288.835 2.3H306.035V0.299995H288.835V2.3ZM305.059 1.08466L293.659 52.7847L295.612 53.2153L307.012 1.51533L305.059 1.08466ZM294.635 54H321.435V52H294.635V54ZM320.459 52.7851L317.159 67.7851L319.112 68.2149L322.412 53.2149L320.459 52.7851ZM371.065 68V69H371.869L372.042 68.2149L371.065 68ZM327.065 68L326.088 67.7848L325.82 69H327.065V68ZM341.765 1.3V0.299995H340.961L340.788 1.08477L341.765 1.3ZM358.965 1.3L359.941 1.51533L360.209 0.299995H358.965V1.3ZM347.565 53L346.588 52.7847L346.32 54H347.565V53ZM374.365 53L375.341 53.2149L375.609 52H374.365V53ZM371.065 67H327.065V69H371.065V67ZM328.041 68.2152L342.741 1.51522L340.788 1.08477L326.088 67.7848L328.041 68.2152ZM341.765 2.3H358.965V0.299995H341.765V2.3ZM357.988 1.08466L346.588 52.7847L348.541 53.2153L359.941 1.51533L357.988 1.08466ZM347.565 54H374.365V52H347.565V54ZM373.388 52.7851L370.088 67.7851L372.042 68.2149L375.341 53.2149L373.388 52.7851ZM397.195 68V69H397.998L398.171 68.2152L397.195 68ZM379.995 68L379.018 67.7848L378.75 69H379.995V68ZM394.695 1.3V0.299995H393.891L393.718 1.08477L394.695 1.3ZM411.895 1.3L412.871 1.51522L413.139 0.299995H411.895V1.3ZM397.195 67H379.995V69H397.195V67ZM380.971 68.2152L395.671 1.51522L393.718 1.08477L379.018 67.7848L380.971 68.2152ZM394.695 2.3H411.895V0.299995H394.695V2.3ZM410.918 1.08477L396.218 67.7848L398.171 68.2152L412.871 1.51522L410.918 1.08477ZM420.794 65.8L420.413 66.7247L420.422 66.7285L420.794 65.8ZM407.594 56.5L406.831 55.8538L406.295 56.486L406.817 57.1296L407.594 56.5ZM418.094 44.1L418.89 43.4945L418.135 42.5033L417.331 43.4538L418.094 44.1ZM427.794 51.6L427.37 52.5059L427.382 52.5114L427.794 51.6ZM446.494 52.8L445.869 52.0191L445.859 52.027L445.85 52.0351L446.494 52.8ZM446.094 46L445.564 46.848L445.577 46.8561L445.59 46.8638L446.094 46ZM440.094 43.4L439.794 44.354L439.802 44.3563L440.094 43.4ZM432.394 40.6L432.769 39.673L432.394 40.6ZM424.594 36.9L424.079 37.7575L424.094 37.7661L424.108 37.7742L424.594 36.9ZM418.694 31.3L417.862 31.8547L417.869 31.8655L418.694 31.3ZM423.594 7.2L424.275 7.93172L424.276 7.93138L423.594 7.2ZM459.094 3.2L458.725 4.12935L458.732 4.13238L458.74 4.13529L459.094 3.2ZM471.494 11.3L472.246 11.9585L472.845 11.2747L472.221 10.6138L471.494 11.3ZM460.994 23.3L460.26 23.979L461.014 24.795L461.746 23.9585L460.994 23.3ZM451.694 17.2L451.322 18.1285L451.332 18.1325L451.343 18.1363L451.694 17.2ZM436.194 16.4L436.779 17.2107L436.794 17.2003L436.808 17.1894L436.194 16.4ZM437.694 23.2L437.257 24.0999L437.268 24.1048L437.694 23.2ZM445.794 26.4L445.471 27.3466L445.794 26.4ZM455.194 30.2L454.77 31.1057L454.781 31.1111L454.793 31.1162L455.194 30.2ZM463.294 36.3L462.522 36.9364L462.527 36.9421L462.532 36.9476L463.294 36.3ZM459.194 62.5L458.528 61.7542L458.523 61.7587L459.194 62.5ZM439.394 68.2C432.774 68.2 426.702 67.0863 421.165 64.8715L420.422 66.7285C426.219 69.047 432.546 70.2 439.394 70.2V68.2ZM421.174 64.8753C415.627 62.5911 411.377 59.5804 408.371 55.8704L406.817 57.1296C410.077 61.153 414.627 64.3422 420.413 66.7247L421.174 64.8753ZM408.357 57.1462L418.857 44.7462L417.331 43.4538L406.831 55.8538L408.357 57.1462ZM417.298 44.7055C419.746 47.9226 423.117 50.5165 427.37 52.5058L428.217 50.6942C424.204 48.8168 421.108 46.4107 418.89 43.4945L417.298 44.7055ZM427.382 52.5114C431.645 54.4364 436.118 55.4 440.794 55.4V53.4C436.402 53.4 432.209 52.4969 428.205 50.6886L427.382 52.5114ZM440.794 55.4C443.443 55.4 445.617 54.8458 447.138 53.5649L445.85 52.0351C444.837 52.8875 443.211 53.4 440.794 53.4V55.4ZM447.118 53.5809C448.631 52.3705 449.494 50.8706 449.494 49.1H447.494C447.494 50.1294 447.023 51.0962 445.869 52.0191L447.118 53.5809ZM449.494 49.1C449.494 47.4256 448.301 46.1299 446.598 45.1362L445.59 46.8638C447.086 47.7368 447.494 48.5078 447.494 49.1H449.494ZM446.624 45.152C444.93 44.0933 442.844 43.1947 440.386 42.4436L439.802 44.3563C442.144 45.072 444.058 45.9067 445.564 46.848L446.624 45.152ZM440.394 42.446C438.091 41.7223 435.55 40.7986 432.769 39.673L432.019 41.5269C434.838 42.6681 437.43 43.6111 439.794 44.354L440.394 42.446ZM432.769 39.673C430.003 38.5535 427.44 37.3375 425.079 36.0258L424.108 37.7742C426.547 39.1292 429.184 40.3798 432.019 41.5269L432.769 39.673ZM425.108 36.0425C422.903 34.7194 421.041 32.9542 419.518 30.7345L417.869 31.8655C419.547 34.3125 421.618 36.2806 424.079 37.7575L425.108 36.0425ZM419.526 30.7453C418.042 28.5201 417.294 25.9824 417.294 23.1H415.294C415.294 26.351 416.145 29.2799 417.862 31.8547L419.526 30.7453ZM417.294 23.1C417.294 17.3392 419.59 12.2962 424.275 7.93172L422.912 6.46828C417.864 11.1705 415.294 16.7274 415.294 23.1H417.294ZM424.276 7.93138C428.981 3.54373 435.382 1.3 443.594 1.3V-0.700005C435.006 -0.700005 428.073 1.65626 422.912 6.46861L424.276 7.93138ZM443.594 1.3C448.94 1.3 453.98 2.24473 458.725 4.12935L459.463 2.27065C454.474 0.288597 449.181 -0.700005 443.594 -0.700005V1.3ZM458.74 4.13529C463.544 5.953 467.546 8.57239 470.766 11.9862L472.221 10.6138C468.775 6.96095 464.51 4.18034 459.448 2.26471L458.74 4.13529ZM470.741 10.6415L460.241 22.6415L461.746 23.9585L472.246 11.9585L470.741 10.6415ZM461.728 22.621C459.145 19.829 455.91 17.713 452.045 16.2637L451.343 18.1363C454.944 19.487 457.909 21.4377 460.26 23.979L461.728 22.621ZM452.065 16.2715C448.294 14.7632 444.568 14 440.894 14V16C444.286 16 447.76 16.7035 451.322 18.1285L452.065 16.2715ZM440.894 14C438.799 14 436.998 14.5074 435.58 15.6106L436.808 17.1894C437.789 16.4259 439.122 16 440.894 16V14ZM435.608 15.5893C434.181 16.62 433.394 18.0066 433.394 19.7H435.394C435.394 18.7267 435.806 17.9133 436.779 17.2107L435.608 15.5893ZM433.394 19.7C433.394 21.6085 435.032 23.0209 437.257 24.0998L438.13 22.3002C435.955 21.2457 435.394 20.3248 435.394 19.7H433.394ZM437.268 24.1048C439.577 25.1914 442.313 26.2715 445.471 27.3466L446.116 25.4534C443.007 24.3951 440.344 23.3419 438.12 22.2952L437.268 24.1048ZM445.471 27.3466C448.569 28.401 451.668 29.6538 454.77 31.1057L455.618 29.2943C452.453 27.8128 449.285 26.5323 446.116 25.4534L445.471 27.3466ZM454.793 31.1162C457.851 32.4539 460.423 34.3921 462.522 36.9364L464.065 35.6636C461.764 32.8746 458.937 30.7461 455.595 29.2838L454.793 31.1162ZM462.532 36.9476C464.64 39.4279 465.694 42.3299 465.694 45.7H467.694C467.694 41.8701 466.481 38.5054 464.056 35.6524L462.532 36.9476ZM465.694 45.7C465.694 52.15 463.314 57.4782 458.528 61.7542L459.86 63.2458C465.073 58.5884 467.694 52.7167 467.694 45.7H465.694ZM458.523 61.7587C453.815 66.0211 447.475 68.2 439.394 68.2V70.2C447.846 70.2 454.706 67.9122 459.865 63.2413L458.523 61.7587ZM531.938 68V69H532.742L532.915 68.2152L531.938 68ZM514.738 68L513.762 67.785L513.494 69H514.738V68ZM520.638 41.2L521.615 41.415L521.882 40.2H520.638V41.2ZM492.938 41.2V40.2H492.134L491.962 40.985L492.938 41.2ZM487.038 68V69H487.842L488.015 68.215L487.038 68ZM469.838 68L468.862 67.7848L468.594 69H469.838V68ZM484.538 1.3V0.299995H483.735L483.562 1.08477L484.538 1.3ZM501.738 1.3L502.715 1.51568L502.983 0.299995H501.738V1.3ZM496.238 26.2L495.262 25.9843L494.993 27.2H496.238V26.2ZM523.938 26.2V27.2H524.742L524.915 26.4157L523.938 26.2ZM529.438 1.3V0.299995H528.635L528.462 1.08431L529.438 1.3ZM546.638 1.3L547.615 1.51522L547.883 0.299995H546.638V1.3ZM531.938 67H514.738V69H531.938V67ZM515.715 68.215L521.615 41.415L519.662 40.985L513.762 67.785L515.715 68.215ZM520.638 40.2H492.938V42.2H520.638V40.2ZM491.962 40.985L486.062 67.785L488.015 68.215L493.915 41.415L491.962 40.985ZM487.038 67H469.838V69H487.038V67ZM470.815 68.2152L485.515 1.51522L483.562 1.08477L468.862 67.7848L470.815 68.2152ZM484.538 2.3H501.738V0.299995H484.538V2.3ZM500.762 1.08431L495.262 25.9843L497.215 26.4157L502.715 1.51568L500.762 1.08431ZM496.238 27.2H523.938V25.2H496.238V27.2ZM524.915 26.4157L530.415 1.51568L528.462 1.08431L522.962 25.9843L524.915 26.4157ZM529.438 2.3H546.638V0.299995H529.438V2.3ZM545.662 1.08477L530.962 67.7848L532.915 68.2152L547.615 1.51522L545.662 1.08477ZM592.859 68V69H593.663L593.836 68.2149L592.859 68ZM543.959 68L542.983 67.7848L542.715 69H543.959V68ZM558.659 1.3V0.299995H557.856L557.683 1.08477L558.659 1.3ZM607.559 1.3L608.535 1.52105L608.811 0.299995H607.559V1.3ZM604.159 16.3V17.3H604.958L605.135 16.5211L604.159 16.3ZM572.559 16.3V15.3H571.756L571.583 16.0841L572.559 16.3ZM570.259 26.7L569.283 26.4841L569.014 27.7H570.259V26.7ZM601.259 26.7L602.236 26.9149L602.503 25.7H601.259V26.7ZM597.959 41.7V42.7H598.763L598.936 41.9149L597.959 41.7ZM566.959 41.7V40.7H566.156L565.983 41.484L566.959 41.7ZM564.459 53L563.483 52.784L563.214 54H564.459V53ZM596.159 53L597.136 53.2149L597.403 52H596.159V53ZM592.859 67H543.959V69H592.859V67ZM544.936 68.2152L559.636 1.51522L557.683 1.08477L542.983 67.7848L544.936 68.2152ZM558.659 2.3H607.559V0.299995H558.659V2.3ZM606.584 1.07894L603.184 16.0789L605.135 16.5211L608.535 1.52105L606.584 1.07894ZM604.159 15.3H572.559V17.3H604.159V15.3ZM571.583 16.0841L569.283 26.4841L571.236 26.9159L573.536 16.5159L571.583 16.0841ZM570.259 27.7H601.259V25.7H570.259V27.7ZM600.283 26.4851L596.983 41.4851L598.936 41.9149L602.236 26.9149L600.283 26.4851ZM597.959 40.7H566.959V42.7H597.959V40.7ZM565.983 41.484L563.483 52.784L565.436 53.216L567.936 41.916L565.983 41.484ZM564.459 54H596.159V52H564.459V54ZM595.183 52.7851L591.883 67.7851L593.836 68.2149L597.136 53.2149L595.183 52.7851ZM602.846 68L601.87 67.7848L601.602 69H602.846V68ZM617.546 1.3V0.299995H616.742L616.57 1.08477L617.546 1.3ZM665.646 9.4L664.973 10.1396L664.977 10.1433L665.646 9.4ZM673.246 40.6L674.21 40.8647L674.212 40.86L673.246 40.6ZM668.546 50.8L669.381 51.3509L669.386 51.3433L668.546 50.8ZM660.346 59.6L659.733 58.8098L660.346 59.6ZM647.746 65.7L647.46 64.7418L647.456 64.7429L647.746 65.7ZM650.546 46.7L649.839 45.9929L649.833 45.9986L650.546 46.7ZM652.646 20.6L653.361 19.9013L652.646 20.6ZM631.446 16.3V15.3H630.643L630.47 16.0845L631.446 16.3ZM623.346 53L622.37 52.7845L622.101 54H623.346V53ZM630.746 67H602.846V69H630.746V67ZM603.823 68.2152L618.523 1.51522L616.57 1.08477L601.87 67.7848L603.823 68.2152ZM617.546 2.3H645.046V0.299995H617.546V2.3ZM645.046 2.3C652.589 2.3 659.218 4.90185 664.973 10.1396L666.319 8.66043C660.208 3.09814 653.103 0.299995 645.046 0.299995V2.3ZM664.977 10.1433C670.759 15.3468 673.646 21.9397 673.646 30H675.646C675.646 21.3936 672.533 14.2532 666.315 8.6567L664.977 10.1433ZM673.646 30C673.646 33.5125 673.191 36.9584 672.28 40.34L674.212 40.86C675.168 37.3083 675.646 33.6875 675.646 30H673.646ZM672.282 40.3353C671.379 43.6232 669.859 46.9302 667.707 50.2568L669.386 51.3433C671.633 47.8699 673.246 44.3768 674.21 40.8647L672.282 40.3353ZM667.711 50.2492C665.574 53.4879 662.916 56.3412 659.733 58.8098L660.959 60.3902C664.309 57.7922 667.118 54.7788 669.381 51.3508L667.711 50.2492ZM659.733 58.8098C656.588 61.2487 652.508 63.2339 647.46 64.7418L648.032 66.6582C653.251 65.0994 657.571 63.0179 660.959 60.3902L659.733 58.8098ZM647.456 64.7429C642.499 66.2431 636.932 67 630.746 67V69C637.093 69 642.86 68.2235 648.036 66.6571L647.456 64.7429ZM633.446 54H633.946V52H633.446V54ZM633.946 54C641.096 54 646.904 51.826 651.259 47.4014L649.833 45.9986C645.921 49.974 640.663 52 633.946 52V54ZM651.253 47.4071C655.647 43.0128 657.846 37.5889 657.846 31.2H655.846C655.846 37.0778 653.845 41.9872 649.839 45.9929L651.253 47.4071ZM657.846 31.2C657.846 26.7528 656.353 22.9645 653.361 19.9013L651.931 21.2987C654.539 23.9688 655.846 27.2472 655.846 31.2H657.846ZM653.361 19.9013C650.357 16.8252 646.524 15.3 641.946 15.3V17.3C646.034 17.3 649.335 18.6414 651.931 21.2987L653.361 19.9013ZM641.946 15.3H631.446V17.3H641.946V15.3ZM630.47 16.0845L622.37 52.7845L624.323 53.2155L632.423 16.5155L630.47 16.0845ZM623.346 54H633.446V52H623.346V54ZM83.9133 178V179H84.7182L84.8902 178.214L83.9133 178ZM66.7133 178L65.7367 177.785L65.4689 179H66.7133V178ZM81.4133 111.3V110.3H80.6097L80.4367 111.085L81.4133 111.3ZM127.813 116.9L127.1 117.601L127.106 117.607L127.813 116.9ZM131.813 138.5L130.874 138.156L130.87 138.167L130.867 138.177L131.813 138.5ZM127.313 146.6L126.523 145.987L126.518 145.994L126.513 146L127.313 146.6ZM118.413 153.1L118.023 152.179L118.017 152.182L118.413 153.1ZM88.8133 155.6V154.6H88.0084L87.8364 155.386L88.8133 155.6ZM92.1133 140.6L91.1374 140.382L90.8648 141.6H92.1133V140.6ZM112.713 138.3L113.348 139.073L113.356 139.066L113.364 139.059L112.713 138.3ZM113.613 127.9L114.257 127.135H114.257L113.613 127.9ZM95.3133 126.3V125.3H94.5123L94.3374 126.082L95.3133 126.3ZM83.9133 177H66.7133V179H83.9133V177ZM67.6898 178.215L82.3898 111.515L80.4367 111.085L65.7367 177.785L67.6898 178.215ZM81.4133 112.3H113.713V110.3H81.4133V112.3ZM113.713 112.3C119.207 112.3 123.64 114.078 127.1 117.601L128.527 116.199C124.653 112.255 119.687 110.3 113.713 110.3V112.3ZM127.106 117.607C130.579 121.08 132.313 125.323 132.313 130.4H134.313C134.313 124.81 132.38 120.053 128.52 116.193L127.106 117.607ZM132.313 130.4C132.313 132.939 131.838 135.523 130.874 138.156L132.752 138.844C133.789 136.01 134.313 133.194 134.313 130.4H132.313ZM130.867 138.177C129.975 140.79 128.533 143.394 126.523 145.987L128.104 147.213C130.227 144.473 131.785 141.677 132.76 138.823L130.867 138.177ZM126.513 146C124.645 148.491 121.839 150.562 118.023 152.179L118.803 154.021C122.854 152.304 125.982 150.042 128.113 147.2L126.513 146ZM118.017 152.182C114.301 153.783 109.908 154.6 104.813 154.6V156.6C110.118 156.6 114.792 155.75 118.809 154.018L118.017 152.182ZM104.813 154.6H88.8133V156.6H104.813V154.6ZM87.8364 155.386L82.9364 177.786L84.8902 178.214L89.7902 155.814L87.8364 155.386ZM92.1133 141.6H105.713V139.6H92.1133V141.6ZM105.713 141.6C108.706 141.6 111.275 140.776 113.348 139.073L112.079 137.527C110.419 138.891 108.321 139.6 105.713 139.6V141.6ZM113.364 139.059C115.446 137.275 116.513 135 116.513 132.3H114.513C114.513 134.4 113.714 136.125 112.062 137.541L113.364 139.059ZM116.513 132.3C116.513 130.18 115.78 128.417 114.257 127.135L112.969 128.665C113.98 129.516 114.513 130.686 114.513 132.3H116.513ZM114.257 127.135C112.769 125.882 110.855 125.3 108.613 125.3V127.3C110.504 127.3 111.924 127.785 112.969 128.665L114.257 127.135ZM108.613 125.3H95.3133V127.3H108.613V125.3ZM94.3374 126.082L91.1374 140.382L93.0891 140.818L96.2891 126.518L94.3374 126.082ZM187.871 178V179H189.266L188.818 177.679L187.871 178ZM168.871 178L167.907 178.267L168.11 179H168.871V178ZM162.671 155.6L163.635 155.333L163.432 154.6H162.671V155.6ZM153.071 155.6V154.6H152.266L152.094 155.386L153.071 155.6ZM148.171 178V179H148.976L149.148 178.214L148.171 178ZM130.971 178L129.995 177.785L129.727 179H130.971V178ZM145.671 111.3V110.3H144.867L144.695 111.085L145.671 111.3ZM191.271 116.7L190.62 117.459L190.626 117.464L191.271 116.7ZM192.571 146L193.353 146.623L193.358 146.617L192.571 146ZM179.871 154.4L179.617 153.433L178.58 153.706L178.924 154.721L179.871 154.4ZM177.071 138.5L177.699 139.278L177.703 139.275L177.071 138.5ZM177.671 128.1L177.02 128.859L177.671 128.1ZM159.571 126.3V125.3H158.77L158.595 126.082L159.571 126.3ZM156.371 140.6L155.395 140.382L155.123 141.6H156.371V140.6ZM187.871 177H168.871V179H187.871V177ZM169.835 177.733L163.635 155.333L161.707 155.867L167.907 178.267L169.835 177.733ZM162.671 154.6H153.071V156.6H162.671V154.6ZM152.094 155.386L147.194 177.786L149.148 178.214L154.048 155.814L152.094 155.386ZM148.171 177H130.971V179H148.171V177ZM131.948 178.215L146.648 111.515L144.695 111.085L129.995 177.785L131.948 178.215ZM145.671 112.3H176.071V110.3H145.671V112.3ZM176.071 112.3C181.784 112.3 186.615 114.026 190.62 117.459L191.922 115.941C187.527 112.174 182.224 110.3 176.071 110.3V112.3ZM190.626 117.464C194.658 120.866 196.671 125.281 196.671 130.8H198.671C198.671 124.719 196.418 119.734 191.916 115.936L190.626 117.464ZM196.671 130.8C196.671 136.389 195.039 141.235 191.784 145.383L193.358 146.617C196.904 142.098 198.671 136.811 198.671 130.8H196.671ZM191.789 145.377C188.517 149.482 184.466 152.157 179.617 153.433L180.126 155.367C185.41 153.977 189.825 151.051 193.353 146.623L191.789 145.377ZM178.924 154.721L186.924 178.321L188.818 177.679L180.818 154.079L178.924 154.721ZM169.771 141.6H170.071V139.6H169.771V141.6ZM170.071 141.6C173.16 141.6 175.739 140.862 177.699 139.278L176.443 137.722C174.937 138.938 172.849 139.6 170.071 139.6V141.6ZM177.703 139.275C179.752 137.605 180.771 135.346 180.771 132.6H178.771C178.771 134.788 177.99 136.461 176.439 137.725L177.703 139.275ZM180.771 132.6C180.771 130.5 179.937 128.725 178.322 127.341L177.02 128.859C178.205 129.875 178.771 131.1 178.771 132.6H180.771ZM178.322 127.341C176.731 125.977 174.831 125.3 172.671 125.3V127.3C174.378 127.3 175.811 127.823 177.02 128.859L178.322 127.341ZM172.671 125.3H159.571V127.3H172.671V125.3ZM158.595 126.082L155.395 140.382L157.347 140.818L160.547 126.518L158.595 126.082ZM156.371 141.6H169.771V139.6H156.371V141.6ZM209.684 170.8L209.026 171.553L209.684 170.8ZM211.384 121.5L212.088 122.21L212.091 122.207L211.384 121.5ZM263.584 118.6L262.926 119.353L262.934 119.36L263.584 118.6ZM261.984 167.9L262.691 168.607L261.984 167.9ZM249.484 157.5L250.225 158.172L250.23 158.166L249.484 157.5ZM250.684 129.9L251.376 129.178L250.684 129.9ZM223.884 132L224.625 132.672L224.63 132.666L223.884 132ZM222.684 159.5L223.376 158.778L222.684 159.5ZM233.884 178.2C224.356 178.2 216.534 175.465 210.343 170.047L209.026 171.553C215.634 177.335 223.946 180.2 233.884 180.2V178.2ZM210.343 170.047C204.174 164.65 201.084 157.631 201.084 148.9H199.084C199.084 158.169 202.395 165.75 209.026 171.553L210.343 170.047ZM201.084 148.9C201.084 138.361 204.748 129.485 212.088 122.21L210.68 120.79C202.954 128.448 199.084 137.839 199.084 148.9H201.084ZM212.091 122.207C219.427 114.872 228.534 111.2 239.484 111.2V109.2C228.034 109.2 218.409 113.062 210.677 120.793L212.091 122.207ZM239.484 111.2C248.944 111.2 256.733 113.934 262.926 119.353L264.243 117.847C257.636 112.066 249.358 109.2 239.484 109.2V111.2ZM262.934 119.36C269.167 124.693 272.284 131.642 272.284 140.3H274.284C274.284 131.091 270.936 123.574 264.235 117.84L262.934 119.36ZM272.284 140.3C272.284 150.907 268.619 159.851 261.277 167.193L262.691 168.607C270.417 160.882 274.284 151.426 274.284 140.3H272.284ZM261.277 167.193C253.942 174.528 244.834 178.2 233.884 178.2V180.2C245.334 180.2 254.96 176.338 262.691 168.607L261.277 167.193ZM234.884 165C240.969 165 246.104 162.712 250.225 158.172L248.744 156.828C244.998 160.955 240.399 163 234.884 163V165ZM250.23 158.166C254.336 153.573 256.384 148.032 256.384 141.6H254.384C254.384 147.568 252.499 152.627 248.739 156.834L250.23 158.166ZM256.384 141.6C256.384 136.559 254.728 132.387 251.376 129.178L249.993 130.622C252.907 133.413 254.384 137.041 254.384 141.6H256.384ZM251.376 129.178C248.028 125.972 243.7 124.4 238.484 124.4V126.4C243.269 126.4 247.074 127.828 249.993 130.622L251.376 129.178ZM238.484 124.4C232.394 124.4 227.258 126.726 223.139 131.334L224.63 132.666C228.377 128.474 232.975 126.4 238.484 126.4V124.4ZM223.144 131.328C219.033 135.857 216.984 141.368 216.984 147.8H218.984C218.984 141.832 220.869 136.81 224.625 132.672L223.144 131.328ZM216.984 147.8C216.984 152.841 218.64 157.013 221.993 160.222L223.376 158.778C220.462 155.987 218.984 152.359 218.984 147.8H216.984ZM221.993 160.222C225.341 163.428 229.669 165 234.884 165V163C230.1 163 226.295 161.572 223.376 158.778L221.993 160.222ZM273.647 178L272.67 177.785L272.402 179H273.647V178ZM288.347 111.3V110.3H287.543L287.37 111.085L288.347 111.3ZM336.447 119.4L335.774 120.14L335.778 120.143L336.447 119.4ZM344.047 150.6L345.011 150.865L345.012 150.86L344.047 150.6ZM339.347 160.8L340.182 161.351L340.186 161.343L339.347 160.8ZM331.147 169.6L330.534 168.81L331.147 169.6ZM318.547 175.7L318.261 174.742L318.257 174.743L318.547 175.7ZM321.347 156.7L320.64 155.993L320.634 155.999L321.347 156.7ZM323.447 130.6L324.162 129.901L323.447 130.6ZM302.247 126.3V125.3H301.444L301.27 126.084L302.247 126.3ZM294.147 163L293.17 162.784L292.902 164H294.147V163ZM301.547 177H273.647V179H301.547V177ZM274.623 178.215L289.323 111.515L287.37 111.085L272.67 177.785L274.623 178.215ZM288.347 112.3H315.847V110.3H288.347V112.3ZM315.847 112.3C323.39 112.3 330.019 114.902 335.774 120.14L337.12 118.66C331.008 113.098 323.904 110.3 315.847 110.3V112.3ZM335.778 120.143C341.56 125.347 344.447 131.94 344.447 140H346.447C346.447 131.394 343.334 124.253 337.116 118.657L335.778 120.143ZM344.447 140C344.447 143.512 343.992 146.958 343.081 150.34L345.012 150.86C345.969 147.308 346.447 143.688 346.447 140H344.447ZM343.083 150.335C342.18 153.623 340.66 156.93 338.507 160.257L340.186 161.343C342.434 157.87 344.047 154.377 345.011 150.865L343.083 150.335ZM338.512 160.249C336.375 163.488 333.717 166.341 330.534 168.81L331.76 170.39C335.11 167.792 337.919 164.779 340.181 161.351L338.512 160.249ZM330.534 168.81C327.389 171.249 323.309 173.234 318.261 174.742L318.833 176.658C324.051 175.099 328.371 173.018 331.76 170.39L330.534 168.81ZM318.257 174.743C313.3 176.243 307.733 177 301.547 177V179C307.894 179 313.661 178.224 318.837 176.657L318.257 174.743ZM304.247 164H304.747V162H304.247V164ZM304.747 164C311.897 164 317.705 161.826 322.06 157.401L320.634 155.999C316.722 159.974 311.463 162 304.747 162V164ZM322.054 157.407C326.448 153.013 328.647 147.589 328.647 141.2H326.647C326.647 147.078 324.646 151.987 320.64 155.993L322.054 157.407ZM328.647 141.2C328.647 136.753 327.154 132.964 324.162 129.901L322.732 131.299C325.34 133.969 326.647 137.247 326.647 141.2H328.647ZM324.162 129.901C321.158 126.825 317.325 125.3 312.747 125.3V127.3C316.835 127.3 320.136 128.641 322.732 131.299L324.162 129.901ZM312.747 125.3H302.247V127.3H312.747V125.3ZM301.27 126.084L293.17 162.784L295.123 163.216L303.223 126.516L301.27 126.084ZM294.147 164H304.247V162H294.147V164ZM359.503 172.8L358.863 173.568L358.874 173.577L359.503 172.8ZM352.203 151L351.227 150.784L351.225 150.794L351.223 150.804L352.203 151ZM361.003 111.3V110.3H360.201L360.027 111.084L361.003 111.3ZM378.503 111.3L379.479 111.516L379.749 110.3H378.503V111.3ZM369.803 150.6L370.722 150.994L370.759 150.908L370.779 150.816L369.803 150.6ZM369.503 153.4H368.503V153.411L368.503 153.422L369.503 153.4ZM372.903 161.1L372.207 161.818L372.218 161.829L372.229 161.839L372.903 161.1ZM397.903 150.6L396.927 150.384L396.927 150.385L397.903 150.6ZM406.603 111.3V110.3H405.8L405.627 111.084L406.603 111.3ZM424.003 111.3L424.98 111.515L425.247 110.3H424.003V111.3ZM415.303 150.9L416.279 151.12L416.28 151.115L415.303 150.9ZM404.503 171.7L403.81 170.979L403.805 170.984L404.503 171.7ZM382.303 178.2C372.496 178.2 365.155 176.092 360.133 172.023L358.874 173.577C364.385 178.042 372.244 180.2 382.303 180.2V178.2ZM360.143 172.032C355.19 167.904 352.703 162.395 352.703 155.4H350.703C350.703 162.939 353.417 169.03 358.863 173.568L360.143 172.032ZM352.703 155.4C352.703 154.217 352.859 152.819 353.184 151.196L351.223 150.804C350.88 152.515 350.703 154.05 350.703 155.4H352.703ZM353.179 151.216L361.979 111.516L360.027 111.084L351.227 150.784L353.179 151.216ZM361.003 112.3H378.503V110.3H361.003V112.3ZM377.527 111.084L368.827 150.384L370.779 150.816L379.479 111.516L377.527 111.084ZM368.884 150.206C368.725 150.578 368.637 151.047 368.584 151.543C368.529 152.058 368.503 152.68 368.503 153.4H370.503C370.503 152.72 370.528 152.175 370.572 151.757C370.619 151.32 370.682 151.089 370.722 150.994L368.884 150.206ZM368.503 153.422C368.576 156.691 369.823 159.506 372.207 161.818L373.599 160.382C371.583 158.427 370.564 156.109 370.503 153.378L368.503 153.422ZM372.229 161.839C374.731 164.12 378.132 165.2 382.303 165.2V163.2C378.475 163.2 375.609 162.214 373.577 160.361L372.229 161.839ZM382.303 165.2C386.69 165.2 390.341 164.012 393.16 161.554C395.969 159.105 397.849 155.486 398.88 150.815L396.927 150.385C395.957 154.78 394.237 157.962 391.846 160.046C389.466 162.121 386.316 163.2 382.303 163.2V165.2ZM398.879 150.816L407.579 111.516L405.627 111.084L396.927 150.384L398.879 150.816ZM406.603 112.3H424.003V110.3H406.603V112.3ZM423.026 111.085L414.326 150.685L416.28 151.115L424.98 111.515L423.026 111.085ZM414.328 150.68C412.36 159.405 408.836 166.146 403.81 170.979L405.196 172.421C410.57 167.254 414.247 160.128 416.279 151.12L414.328 150.68ZM403.805 170.984C398.916 175.746 391.802 178.2 382.303 178.2V180.2C392.137 180.2 399.823 177.654 405.201 172.416L403.805 170.984ZM433.903 170.9L433.245 171.653L433.253 171.66L433.903 170.9ZM435.703 121L435.019 120.271L435.015 120.274L435.703 121ZM483.903 116.1L483.295 116.894L483.301 116.899L483.903 116.1ZM494.603 130.7L494.912 131.651L495.877 131.337L495.55 130.377L494.603 130.7ZM478.003 136.1L477.04 136.37L477.321 137.373L478.312 137.051L478.003 136.1ZM472.503 128.3L471.916 129.11L471.928 129.118L471.939 129.126L472.503 128.3ZM448.203 132L448.938 132.678L448.943 132.673L448.203 132ZM446.803 159.4L446.088 160.099L446.096 160.107L446.104 160.115L446.803 159.4ZM467.303 161.9L467.759 162.79L467.768 162.786L467.776 162.781L467.303 161.9ZM473.603 156.3L474.152 155.464L473.311 154.911L472.764 155.757L473.603 156.3ZM487.003 165.1L487.81 165.691L488.432 164.842L487.552 164.264L487.003 165.1ZM473.703 175.9L473.313 174.979L473.703 175.9ZM458.103 178.2C448.64 178.2 440.814 175.498 434.553 170.14L433.253 171.66C439.925 177.369 448.232 180.2 458.103 180.2V178.2ZM434.562 170.147C428.394 164.751 425.303 157.7 425.303 148.9H423.303C423.303 158.233 426.612 165.849 433.245 171.653L434.562 170.147ZM425.303 148.9C425.303 137.747 429.009 128.719 436.391 121.726L435.015 120.274C427.197 127.681 423.303 137.253 423.303 148.9H425.303ZM436.388 121.729C443.86 114.712 452.945 111.2 463.703 111.2V109.2C452.462 109.2 442.88 112.888 435.019 120.271L436.388 121.729ZM463.703 111.2C471.88 111.2 478.381 113.128 483.295 116.894L484.511 115.306C479.159 111.205 472.192 109.2 463.703 109.2V111.2ZM483.301 116.899C488.281 120.65 491.724 125.353 493.657 131.023L495.55 130.377C493.483 124.314 489.792 119.284 484.505 115.301L483.301 116.899ZM494.294 129.749L477.694 135.149L478.312 137.051L494.912 131.651L494.294 129.749ZM478.966 135.83C477.972 132.282 476.004 129.48 473.067 127.474L471.939 129.126C474.469 130.853 476.167 133.252 477.04 136.37L478.966 135.83ZM473.09 127.49C470.23 125.417 466.818 124.4 462.903 124.4V126.4C466.455 126.4 469.442 127.316 471.916 129.11L473.09 127.49ZM462.903 124.4C456.813 124.4 451.647 126.725 447.463 131.327L448.943 132.673C452.759 128.475 457.393 126.4 462.903 126.4V124.4ZM447.468 131.322C443.288 135.85 441.203 141.363 441.203 147.8H443.203C443.203 141.837 445.118 136.817 448.938 132.678L447.468 131.322ZM441.203 147.8C441.203 152.647 442.829 156.769 446.088 160.099L447.518 158.701C444.644 155.764 443.203 152.153 443.203 147.8H441.203ZM446.104 160.115C449.453 163.393 453.819 165 459.103 165V163C454.254 163 450.42 161.541 447.503 158.685L446.104 160.115ZM459.103 165C462.014 165 464.902 164.253 467.759 162.79L466.847 161.01C464.237 162.347 461.659 163 459.103 163V165ZM467.776 162.781C470.636 161.247 472.871 159.272 474.443 156.843L472.764 155.757C471.402 157.862 469.437 159.62 466.83 161.019L467.776 162.781ZM473.054 157.136L486.454 165.936L487.552 164.264L474.152 155.464L473.054 157.136ZM486.197 164.509C482.626 169.378 478.331 172.856 473.313 174.979L474.093 176.821C479.475 174.544 484.047 170.822 487.81 165.691L486.197 164.509ZM473.313 174.979C468.226 177.131 463.158 178.2 458.103 178.2V180.2C463.448 180.2 468.78 179.069 474.093 176.821L473.313 174.979ZM521.86 178V179H522.665L522.837 178.214L521.86 178ZM504.66 178L503.683 177.786L503.418 179H504.66V178ZM515.96 126.3L516.937 126.514L517.202 125.3H515.96V126.3ZM497.26 126.3L496.285 126.079L496.008 127.3H497.26V126.3ZM500.66 111.3V110.3H499.861L499.685 111.079L500.66 111.3ZM555.16 111.3L556.137 111.515L556.404 110.3H555.16V111.3ZM551.86 126.3V127.3H552.664L552.837 126.515L551.86 126.3ZM533.16 126.3V125.3H532.355L532.183 126.086L533.16 126.3ZM521.86 177H504.66V179H521.86V177ZM505.637 178.214L516.937 126.514L514.983 126.086L503.683 177.786L505.637 178.214ZM515.96 125.3H497.26V127.3H515.96V125.3ZM498.235 126.521L501.635 111.521L499.685 111.079L496.285 126.079L498.235 126.521ZM500.66 112.3H555.16V110.3H500.66V112.3ZM554.184 111.085L550.884 126.085L552.837 126.515L556.137 111.515L554.184 111.085ZM551.86 125.3H533.16V127.3H551.86V125.3ZM532.183 126.086L520.883 177.786L522.837 178.214L534.137 126.514L532.183 126.086ZM560.442 175.8L560.061 176.725L560.071 176.728L560.442 175.8ZM547.242 166.5L546.479 165.854L545.944 166.486L546.465 167.13L547.242 166.5ZM557.742 154.1L558.538 153.494L557.784 152.503L556.979 153.454L557.742 154.1ZM567.442 161.6L567.018 162.506L567.031 162.511L567.442 161.6ZM586.142 162.8L585.518 162.019L585.508 162.027L585.498 162.035L586.142 162.8ZM585.742 156L585.212 156.848L585.225 156.856L585.238 156.864L585.742 156ZM579.742 153.4L579.442 154.354L579.45 154.356L579.742 153.4ZM572.042 150.6L572.417 149.673L572.042 150.6ZM564.242 146.9L563.728 147.757L563.742 147.766L563.757 147.774L564.242 146.9ZM558.342 141.3L557.51 141.855L557.517 141.866L558.342 141.3ZM563.242 117.2L563.924 117.932L563.924 117.931L563.242 117.2ZM598.742 113.2L598.373 114.129L598.381 114.132L598.388 114.135L598.742 113.2ZM611.142 121.3L611.895 121.958L612.493 121.275L611.87 120.614L611.142 121.3ZM600.642 133.3L599.908 133.979L600.663 134.795L601.395 133.958L600.642 133.3ZM591.342 127.2L590.971 128.128L590.981 128.133L590.991 128.136L591.342 127.2ZM575.842 126.4L576.428 127.211L576.442 127.2L576.456 127.189L575.842 126.4ZM577.342 133.2L576.906 134.1L576.916 134.105L577.342 133.2ZM585.442 136.4L585.12 137.347L585.442 136.4ZM594.842 140.2L594.418 141.106L594.43 141.111L594.441 141.116L594.842 140.2ZM602.942 146.3L602.171 146.936L602.175 146.942L602.18 146.948L602.942 146.3ZM598.842 172.5L598.176 171.754L598.171 171.759L598.842 172.5ZM579.042 178.2C572.423 178.2 566.351 177.086 560.814 174.872L560.071 176.728C565.867 179.047 572.195 180.2 579.042 180.2V178.2ZM560.823 174.875C555.276 172.591 551.025 169.58 548.019 165.87L546.465 167.13C549.726 171.153 554.275 174.342 560.061 176.725L560.823 174.875ZM548.005 167.146L558.505 154.746L556.979 153.454L546.479 165.854L548.005 167.146ZM556.946 154.706C559.394 157.923 562.766 160.517 567.018 162.506L567.866 160.694C563.852 158.817 560.757 156.411 558.538 153.494L556.946 154.706ZM567.031 162.511C571.293 164.436 575.767 165.4 580.442 165.4V163.4C576.051 163.4 571.858 162.497 567.854 160.689L567.031 162.511ZM580.442 165.4C583.092 165.4 585.265 164.846 586.786 163.565L585.498 162.035C584.486 162.888 582.859 163.4 580.442 163.4V165.4ZM586.767 163.581C588.28 162.37 589.142 160.871 589.142 159.1H587.142C587.142 160.129 586.671 161.096 585.518 162.019L586.767 163.581ZM589.142 159.1C589.142 157.426 587.95 156.13 586.246 155.136L585.238 156.864C586.735 157.737 587.142 158.508 587.142 159.1H589.142ZM586.272 155.152C584.578 154.093 582.492 153.195 580.034 152.444L579.45 154.356C581.792 155.072 583.706 155.907 585.212 156.848L586.272 155.152ZM580.042 152.446C577.739 151.722 575.198 150.799 572.417 149.673L571.667 151.527C574.486 152.668 577.078 153.611 579.442 154.354L580.042 152.446ZM572.417 149.673C569.652 148.554 567.089 147.337 564.728 146.026L563.757 147.774C566.196 149.129 568.833 150.38 571.667 151.527L572.417 149.673ZM564.757 146.043C562.551 144.719 560.689 142.954 559.167 140.734L557.517 141.866C559.195 144.313 561.266 146.281 563.728 147.757L564.757 146.043ZM559.174 140.745C557.691 138.52 556.942 135.982 556.942 133.1H554.942C554.942 136.351 555.794 139.28 557.51 141.855L559.174 140.745ZM556.942 133.1C556.942 127.339 559.238 122.296 563.924 117.932L562.561 116.468C557.513 121.171 554.942 126.727 554.942 133.1H556.942ZM563.924 117.931C568.63 113.544 575.03 111.3 583.242 111.3V109.3C574.654 109.3 567.721 111.656 562.56 116.469L563.924 117.931ZM583.242 111.3C588.588 111.3 593.629 112.245 598.373 114.129L599.111 112.271C594.122 110.289 588.83 109.3 583.242 109.3V111.3ZM598.388 114.135C603.192 115.953 607.194 118.572 610.415 121.986L611.87 120.614C608.424 116.961 604.159 114.18 599.096 112.265L598.388 114.135ZM610.39 120.641L599.89 132.641L601.395 133.958L611.895 121.958L610.39 120.641ZM601.376 132.621C598.794 129.829 595.558 127.713 591.693 126.264L590.991 128.136C594.593 129.487 597.557 131.438 599.908 133.979L601.376 132.621ZM591.714 126.272C587.943 124.763 584.217 124 580.542 124V126C583.934 126 587.408 126.704 590.971 128.128L591.714 126.272ZM580.542 124C578.448 124 576.647 124.507 575.228 125.611L576.456 127.189C577.438 126.426 578.77 126 580.542 126V124ZM575.257 125.589C573.83 126.62 573.042 128.007 573.042 129.7H575.042C575.042 128.727 575.455 127.913 576.428 127.211L575.257 125.589ZM573.042 129.7C573.042 131.609 574.681 133.021 576.906 134.1L577.778 132.3C575.604 131.246 575.042 130.325 575.042 129.7H573.042ZM576.916 134.105C579.225 135.191 581.962 136.272 585.12 137.347L585.764 135.453C582.656 134.395 579.992 133.342 577.768 132.295L576.916 134.105ZM585.12 137.347C588.217 138.401 591.317 139.654 594.418 141.106L595.266 139.294C592.101 137.813 588.934 136.532 585.764 135.453L585.12 137.347ZM594.441 141.116C597.499 142.454 600.072 144.392 602.171 146.936L603.714 145.664C601.413 142.875 598.585 140.746 595.243 139.284L594.441 141.116ZM602.18 146.948C604.289 149.428 605.342 152.33 605.342 155.7H607.342C607.342 151.87 606.129 148.505 603.704 145.652L602.18 146.948ZM605.342 155.7C605.342 162.15 602.963 167.478 598.176 171.754L599.508 173.246C604.722 168.588 607.342 162.717 607.342 155.7H605.342ZM598.171 171.759C593.463 176.021 587.123 178.2 579.042 178.2V180.2C587.494 180.2 594.354 177.912 599.513 173.241L598.171 171.759Z" fill="#6C757D"/>
</svg>
