<svg width="465" height="180" viewBox="0 0 465 180" fill="none" xmlns="http://www.w3.org/2000/svg">
<path d="M28.4441 60.9L27.7856 61.6526L27.794 61.6598L28.4441 60.9ZM30.2441 11L29.5596 10.271L29.5564 10.274L30.2441 11ZM78.4441 6.1L77.8359 6.8938L77.8425 6.89875L78.4441 6.1ZM89.1441 20.7L89.4535 21.6509L90.4179 21.3372L90.0907 20.3773L89.1441 20.7ZM72.5441 26.1L71.5812 26.3696L71.8622 27.3734L72.8535 27.0509L72.5441 26.1ZM67.0441 18.3L66.4572 19.1096L66.4686 19.1179L66.4802 19.1258L67.0441 18.3ZM42.7441 22L43.479 22.6783L43.4841 22.6727L42.7441 22ZM41.3441 49.4L40.6295 50.0995L40.637 50.1071L40.6447 50.1147L41.3441 49.4ZM61.8441 51.9L62.3 52.79L62.3085 52.7857L62.317 52.7812L61.8441 51.9ZM68.1441 46.3L68.6931 45.4641L67.8515 44.9115L67.3046 45.7567L68.1441 46.3ZM81.5441 55.1L82.3505 55.6914L82.9733 54.8422L82.0931 54.2641L81.5441 55.1ZM68.2441 65.9L67.8545 64.979L68.2441 65.9ZM52.6441 68.2C43.1815 68.2 35.3552 65.4975 29.0943 60.1402L27.794 61.6598C34.4664 67.3692 42.7735 70.2 52.6441 70.2V68.2ZM29.1026 60.1474C22.9354 54.7511 19.8441 47.6999 19.8441 38.9H17.8441C17.8441 48.2334 21.1529 55.8489 27.7856 61.6526L29.1026 60.1474ZM19.8441 38.9C19.8441 27.7475 23.5501 18.7192 30.9319 11.7259L29.5564 10.274C21.7382 17.6808 17.8441 27.2525 17.8441 38.9H19.8441ZM30.9287 11.7289C38.4008 4.71169 47.4856 1.2 58.2441 1.2V-0.800003C47.0027 -0.800003 37.4208 2.88831 29.5596 10.2711L30.9287 11.7289ZM58.2441 1.2C66.4215 1.2 72.9219 3.12846 77.8359 6.89377L79.0524 5.30623C73.6997 1.20487 66.7334 -0.800003 58.2441 -0.800003V1.2ZM77.8425 6.89875C82.822 10.6496 86.2648 15.3529 88.1976 21.0227L90.0907 20.3773C88.0235 14.3137 84.3329 9.28375 79.0458 5.30124L77.8425 6.89875ZM88.8348 19.749L72.2348 25.149L72.8535 27.0509L89.4535 21.6509L88.8348 19.749ZM73.5071 25.8304C72.5135 22.2817 70.5452 19.48 67.6081 17.4742L66.4802 19.1258C69.0098 20.8533 70.7081 23.2516 71.5812 26.3696L73.5071 25.8304ZM67.6311 17.4904C64.7714 15.4171 61.359 14.4 57.4441 14.4V16.4C60.996 16.4 63.9835 17.3162 66.4572 19.1096L67.6311 17.4904ZM57.4441 14.4C51.3544 14.4 46.1883 16.7248 42.0042 21.3273L43.4841 22.6727C47.3 18.4752 51.9339 16.4 57.4441 16.4V14.4ZM42.0093 21.3217C37.8294 25.8499 35.7441 31.3628 35.7441 37.8H37.7441C37.7441 31.8372 39.6588 26.8167 43.4789 22.6783L42.0093 21.3217ZM35.7441 37.8C35.7441 42.6472 37.3702 46.7693 40.6295 50.0995L42.0588 48.7005C39.1848 45.764 37.7441 42.1528 37.7441 37.8H35.7441ZM40.6447 50.1147C43.9941 53.3928 48.3599 55 53.6441 55V53C48.795 53 44.9609 51.5405 42.0436 48.6853L40.6447 50.1147ZM53.6441 55C56.5547 55 59.4432 54.2533 62.3 52.79L61.3883 51.01C58.7784 52.3467 56.2003 53 53.6441 53V55ZM62.317 52.7812C65.1767 51.2467 67.4124 49.2716 68.9837 46.8433L67.3046 45.7567C65.9425 47.8617 63.9782 49.62 61.3713 51.0188L62.317 52.7812ZM67.5952 47.1359L80.9952 55.9359L82.0931 54.2641L68.6931 45.4641L67.5952 47.1359ZM80.7377 54.5086C77.1669 59.3779 72.8724 62.8561 67.8545 64.979L68.6338 66.821C74.0159 64.5439 78.588 60.8221 82.3505 55.6914L80.7377 54.5086ZM67.8545 64.979C62.7671 67.1314 57.6992 68.2 52.6441 68.2V70.2C57.9891 70.2 63.3212 69.0686 68.6338 66.821L67.8545 64.979ZM98.2824 62.8L97.6422 63.5683L97.6529 63.577L98.2824 62.8ZM90.9824 41L90.0061 40.7836L90.0039 40.7937L90.0018 40.8039L90.9824 41ZM99.7824 1.3V0.299995H98.9798L98.8061 1.08359L99.7824 1.3ZM117.282 1.3L118.259 1.51614L118.528 0.299995H117.282V1.3ZM108.582 40.6L109.502 40.9939L109.539 40.9077L109.559 40.8161L108.582 40.6ZM108.282 43.4H107.282V43.4111L107.283 43.4222L108.282 43.4ZM111.682 51.1L110.986 51.8179L110.997 51.8286L111.009 51.839L111.682 51.1ZM136.682 40.6L135.706 40.3839L135.706 40.3846L136.682 40.6ZM145.382 1.3V0.299995H144.58L144.406 1.08385L145.382 1.3ZM162.782 1.3L163.759 1.51457L164.026 0.299995H162.782V1.3ZM154.082 40.9L155.058 41.12L155.059 41.1146L154.082 40.9ZM143.282 61.7L142.589 60.9791L142.585 60.9837L143.282 61.7ZM121.082 68.2C111.275 68.2 103.934 66.0916 98.9119 62.023L97.6529 63.577C103.164 68.0418 111.023 70.2 121.082 70.2V68.2ZM98.9226 62.0318C93.9691 57.9038 91.4824 52.3948 91.4824 45.4H89.4824C89.4824 52.9386 92.1958 59.0295 97.6422 63.5682L98.9226 62.0318ZM91.4824 45.4C91.4824 44.2171 91.6385 42.8186 91.963 41.1961L90.0018 40.8039C89.6597 42.5147 89.4824 44.0495 89.4824 45.4H91.4824ZM91.9587 41.2164L100.759 1.5164L98.8061 1.08359L90.0061 40.7836L91.9587 41.2164ZM99.7824 2.3H117.282V0.299995H99.7824V2.3ZM116.306 1.08385L107.606 40.3839L109.559 40.8161L118.259 1.51614L116.306 1.08385ZM107.663 40.2061C107.504 40.5781 107.416 41.0467 107.363 41.5435C107.308 42.0581 107.282 42.6799 107.282 43.4H109.282C109.282 42.7201 109.307 42.1752 109.352 41.7565C109.398 41.32 109.461 41.0886 109.502 40.9939L107.663 40.2061ZM107.283 43.4222C107.355 46.6912 108.602 49.5059 110.986 51.8179L112.379 50.3821C110.363 48.4274 109.343 46.1088 109.282 43.3778L107.283 43.4222ZM111.009 51.839C113.51 54.1195 116.911 55.2 121.082 55.2V53.2C117.254 53.2 114.388 52.2138 112.356 50.361L111.009 51.839ZM121.082 55.2C125.469 55.2 129.12 54.0119 131.94 51.5538C134.748 49.105 136.629 45.4863 137.659 40.8154L135.706 40.3846C134.736 44.7803 133.016 47.9617 130.625 50.0462C128.245 52.1214 125.096 53.2 121.082 53.2V55.2ZM137.659 40.8161L146.359 1.51614L144.406 1.08385L135.706 40.3839L137.659 40.8161ZM145.382 2.3H162.782V0.299995H145.382V2.3ZM161.806 1.08541L153.106 40.6854L155.059 41.1146L163.759 1.51457L161.806 1.08541ZM153.107 40.68C151.139 49.4052 147.616 56.1462 142.589 60.9792L143.976 62.4208C149.349 57.2538 153.026 50.1281 155.058 41.12L153.107 40.68ZM142.585 60.9837C137.696 65.7457 130.582 68.2 121.082 68.2V70.2C130.917 70.2 138.603 67.6543 143.98 62.4164L142.585 60.9837ZM171.682 65.8L171.302 66.7247L171.311 66.7285L171.682 65.8ZM158.482 56.5L157.719 55.8538L157.184 56.486L157.705 57.1296L158.482 56.5ZM168.982 44.1L169.778 43.4945L169.024 42.5033L168.219 43.4538L168.982 44.1ZM178.682 51.6L178.259 52.5059L178.271 52.5114L178.682 51.6ZM197.382 52.8L196.758 52.0191L196.748 52.027L196.738 52.0351L197.382 52.8ZM196.982 46L196.452 46.848L196.465 46.8561L196.479 46.8638L196.982 46ZM190.982 43.4L190.683 44.354L190.69 44.3563L190.982 43.4ZM183.282 40.6L183.658 39.673L183.282 40.6ZM175.482 36.9L174.968 37.7575L174.982 37.7661L174.997 37.7742L175.482 36.9ZM169.582 31.3L168.75 31.8547L168.758 31.8655L169.582 31.3ZM174.482 7.2L175.164 7.93172L175.164 7.93138L174.482 7.2ZM209.982 3.2L209.613 4.12935L209.621 4.13238L209.629 4.13529L209.982 3.2ZM222.382 11.3L223.135 11.9585L223.733 11.2747L223.11 10.6138L222.382 11.3ZM211.882 23.3L211.148 23.979L211.903 24.795L212.635 23.9585L211.882 23.3ZM202.582 17.2L202.211 18.1285L202.221 18.1325L202.231 18.1363L202.582 17.2ZM187.082 16.4L187.668 17.2107L187.682 17.2003L187.696 17.1894L187.082 16.4ZM188.582 23.2L188.146 24.0999L188.157 24.1048L188.582 23.2ZM196.682 26.4L196.36 27.3466L196.682 26.4ZM206.082 30.2L205.658 31.1057L205.67 31.1111L205.682 31.1162L206.082 30.2ZM214.182 36.3L213.411 36.9364L213.416 36.9421L213.42 36.9476L214.182 36.3ZM210.082 62.5L209.416 61.7542L209.411 61.7587L210.082 62.5ZM190.282 68.2C183.663 68.2 177.591 67.0863 172.054 64.8715L171.311 66.7285C177.107 69.047 183.435 70.2 190.282 70.2V68.2ZM172.063 64.8753C166.516 62.5911 162.266 59.5804 159.259 55.8704L157.705 57.1296C160.966 61.153 165.516 64.3422 171.302 66.7247L172.063 64.8753ZM159.246 57.1462L169.746 44.7462L168.219 43.4538L157.719 55.8538L159.246 57.1462ZM168.187 44.7055C170.634 47.9226 174.006 50.5165 178.259 52.5058L179.106 50.6942C175.092 48.8168 171.997 46.4107 169.778 43.4945L168.187 44.7055ZM178.271 52.5114C182.533 54.4364 187.007 55.4 191.682 55.4V53.4C187.291 53.4 183.098 52.4969 179.094 50.6886L178.271 52.5114ZM191.682 55.4C194.332 55.4 196.506 54.8458 198.027 53.5649L196.738 52.0351C195.726 52.8875 194.1 53.4 191.682 53.4V55.4ZM198.007 53.5809C199.52 52.3705 200.382 50.8706 200.382 49.1H198.382C198.382 50.1294 197.911 51.0962 196.758 52.0191L198.007 53.5809ZM200.382 49.1C200.382 47.4256 199.19 46.1299 197.486 45.1362L196.479 46.8638C197.975 47.7368 198.382 48.5078 198.382 49.1H200.382ZM197.512 45.152C195.818 44.0933 193.733 43.1947 191.275 42.4436L190.69 44.3563C193.032 45.072 194.946 45.9067 196.452 46.848L197.512 45.152ZM191.282 42.446C188.979 41.7223 186.438 40.7986 183.658 39.673L182.907 41.5269C185.727 42.6681 188.319 43.6111 190.683 44.354L191.282 42.446ZM183.658 39.673C180.892 38.5535 178.329 37.3375 175.968 36.0258L174.997 37.7742C177.436 39.1292 180.073 40.3798 182.907 41.5269L183.658 39.673ZM175.997 36.0425C173.792 34.7194 171.929 32.9542 170.407 30.7345L168.758 31.8655C170.436 34.3125 172.506 36.2806 174.968 37.7575L175.997 36.0425ZM170.414 30.7453C168.931 28.5201 168.182 25.9824 168.182 23.1H166.182C166.182 26.351 167.034 29.2799 168.75 31.8547L170.414 30.7453ZM168.182 23.1C168.182 17.3392 170.479 12.2962 175.164 7.93172L173.801 6.46828C168.753 11.1705 166.182 16.7274 166.182 23.1H168.182ZM175.164 7.93138C179.87 3.54373 186.271 1.3 194.482 1.3V-0.700005C185.894 -0.700005 178.962 1.65626 173.8 6.46861L175.164 7.93138ZM194.482 1.3C199.828 1.3 204.869 2.24473 209.613 4.12935L210.352 2.27065C205.362 0.288597 200.07 -0.700005 194.482 -0.700005V1.3ZM209.629 4.13529C214.432 5.953 218.434 8.57239 221.655 11.9862L223.11 10.6138C219.664 6.96095 215.399 4.18034 210.336 2.26471L209.629 4.13529ZM221.63 10.6415L211.13 22.6415L212.635 23.9585L223.135 11.9585L221.63 10.6415ZM212.617 22.621C210.034 19.829 206.798 17.713 202.934 16.2637L202.231 18.1363C205.833 19.487 208.798 21.4377 211.148 23.979L212.617 22.621ZM202.954 16.2715C199.183 14.7632 195.457 14 191.782 14V16C195.174 16 198.649 16.7035 202.211 18.1285L202.954 16.2715ZM191.782 14C189.688 14 187.887 14.5074 186.468 15.6106L187.696 17.1894C188.678 16.4259 190.01 16 191.782 16V14ZM186.497 15.5893C185.07 16.62 184.282 18.0066 184.282 19.7H186.282C186.282 18.7267 186.695 17.9133 187.668 17.2107L186.497 15.5893ZM184.282 19.7C184.282 21.6085 185.921 23.0209 188.146 24.0998L189.019 22.3002C186.844 21.2457 186.282 20.3248 186.282 19.7H184.282ZM188.157 24.1048C190.466 25.1914 193.202 26.2715 196.36 27.3466L197.005 25.4534C193.896 24.3951 191.232 23.3419 189.008 22.2952L188.157 24.1048ZM196.36 27.3466C199.457 28.401 202.557 29.6538 205.658 31.1057L206.506 29.2943C203.341 27.8128 200.174 26.5323 197.005 25.4534L196.36 27.3466ZM205.682 31.1162C208.739 32.4539 211.312 34.3921 213.411 36.9364L214.954 35.6636C212.653 32.8746 209.825 30.7461 206.483 29.2838L205.682 31.1162ZM213.42 36.9476C215.529 39.4279 216.582 42.3299 216.582 45.7H218.582C218.582 41.8701 217.369 38.5054 214.944 35.6524L213.42 36.9476ZM216.582 45.7C216.582 52.15 214.203 57.4782 209.416 61.7542L210.749 63.2458C215.962 58.5884 218.582 52.7167 218.582 45.7H216.582ZM209.411 61.7587C204.703 66.0211 198.364 68.2 190.282 68.2V70.2C198.735 70.2 205.595 67.9122 210.754 63.2413L209.411 61.7587ZM250.093 68V69H250.898L251.07 68.2135L250.093 68ZM232.893 68L231.916 67.7865L231.65 69H232.893V68ZM244.193 16.3L245.17 16.5135L245.435 15.3H244.193V16.3ZM225.493 16.3L224.517 16.0789L224.241 17.3H225.493V16.3ZM228.893 1.3V0.299995H228.094L227.917 1.07894L228.893 1.3ZM283.393 1.3L284.369 1.51486L284.637 0.299995H283.393V1.3ZM280.093 16.3V17.3H280.896L281.069 16.5149L280.093 16.3ZM261.393 16.3V15.3H260.588L260.416 16.0865L261.393 16.3ZM250.093 67H232.893V69H250.093V67ZM233.87 68.2135L245.17 16.5135L243.216 16.0865L231.916 67.7865L233.87 68.2135ZM244.193 15.3H225.493V17.3H244.193V15.3ZM226.468 16.5211L229.868 1.52105L227.917 1.07894L224.517 16.0789L226.468 16.5211ZM228.893 2.3H283.393V0.299995H228.893V2.3ZM282.416 1.08513L279.116 16.0851L281.069 16.5149L284.369 1.51486L282.416 1.08513ZM280.093 15.3H261.393V17.3H280.093V15.3ZM260.416 16.0865L249.116 67.7865L251.07 68.2135L262.37 16.5135L260.416 16.0865ZM288.698 60.8L288.04 61.5526L288.698 60.8ZM290.398 11.5L291.102 12.2102L291.105 12.2071L290.398 11.5ZM342.598 8.6L341.94 9.35262L341.948 9.3598L342.598 8.6ZM340.998 57.9L341.705 58.6071L340.998 57.9ZM328.498 47.5L329.239 48.1721L329.244 48.1665L328.498 47.5ZM329.698 19.9L330.39 19.1777L329.698 19.9ZM302.898 22L303.639 22.6721L303.644 22.6665L302.898 22ZM301.698 49.5L302.39 48.7777L301.698 49.5ZM312.898 68.2C303.37 68.2 295.548 65.465 289.357 60.0474L288.04 61.5526C294.648 67.335 302.96 70.2 312.898 70.2V68.2ZM289.357 60.0474C283.188 54.6495 280.098 47.6307 280.098 38.9H278.098C278.098 48.1693 281.409 55.7505 288.04 61.5526L289.357 60.0474ZM280.098 38.9C280.098 28.3613 283.762 19.4853 291.102 12.2102L289.694 10.7898C281.967 18.448 278.098 27.8387 278.098 38.9H280.098ZM291.105 12.2071C298.441 4.87174 307.548 1.2 318.498 1.2V-0.800003C307.048 -0.800003 297.422 3.06159 289.691 10.7929L291.105 12.2071ZM318.498 1.2C327.958 1.2 335.747 3.9339 341.94 9.35257L343.257 7.84742C336.649 2.0661 328.372 -0.800003 318.498 -0.800003V1.2ZM341.948 9.3598C348.18 14.6926 351.298 21.6423 351.298 30.3H353.298C353.298 21.091 349.949 13.574 343.248 7.84019L341.948 9.3598ZM351.298 30.3C351.298 40.9074 347.633 49.8513 340.291 57.1929L341.705 58.6071C349.43 50.8821 353.298 41.4259 353.298 30.3H351.298ZM340.291 57.1929C332.956 64.5283 323.848 68.2 312.898 68.2V70.2C324.348 70.2 333.974 66.3384 341.705 58.6071L340.291 57.1929ZM313.898 55C319.983 55 325.118 52.7121 329.238 48.1721L327.758 46.8279C324.012 50.9546 319.413 53 313.898 53V55ZM329.244 48.1665C333.35 43.5733 335.398 38.0323 335.398 31.6H333.398C333.398 37.5677 331.513 42.6267 327.753 46.8335L329.244 48.1665ZM335.398 31.6C335.398 26.5593 333.742 22.3874 330.39 19.1777L329.006 20.6223C331.921 23.4126 333.398 27.0407 333.398 31.6H335.398ZM330.39 19.1777C327.042 15.9722 322.713 14.4 317.498 14.4V16.4C322.283 16.4 326.088 17.8278 329.006 20.6223L330.39 19.1777ZM317.498 14.4C311.408 14.4 306.272 16.7256 302.153 21.3335L303.644 22.6665C307.391 18.4744 311.988 16.4 317.498 16.4V14.4ZM302.158 21.3279C298.047 25.8569 295.998 31.3677 295.998 37.8H297.998C297.998 31.8323 299.883 26.8098 303.638 22.6721L302.158 21.3279ZM295.998 37.8C295.998 42.8407 297.654 47.0126 301.006 50.2223L302.39 48.7777C299.475 45.9874 297.998 42.3593 297.998 37.8H295.998ZM301.006 50.2223C304.354 53.4278 308.683 55 313.898 55V53C309.113 53 305.308 51.5722 302.39 48.7777L301.006 50.2223ZM428.361 68V69H429.164L429.337 68.2152L428.361 68ZM411.161 68L410.184 67.7852L409.917 69H411.161V68ZM420.861 23.9L421.837 24.1148L420.004 23.3835L420.861 23.9ZM394.261 68V69H394.825L395.117 68.5165L394.261 68ZM386.661 68L385.673 68.159L385.809 69H386.661V68ZM379.561 23.9L380.548 23.741L378.584 23.6852L379.561 23.9ZM369.861 68V69H370.664L370.837 68.2148L369.861 68ZM352.661 68L351.684 67.7848L351.416 69H352.661V68ZM367.361 1.3V0.299995H366.557L366.384 1.08477L367.361 1.3ZM390.661 1.3L391.648 1.14472L391.516 0.299995H390.661V1.3ZM396.461 38.2L395.473 38.3553L395.901 41.0805L397.318 38.7138L396.461 38.2ZM418.561 1.3V0.299995H417.994L417.703 0.786182L418.561 1.3ZM443.061 1.3L444.037 1.51522L444.305 0.299995H443.061V1.3ZM428.361 67H411.161V69H428.361V67ZM412.137 68.2148L421.837 24.1148L419.884 23.6852L410.184 67.7852L412.137 68.2148ZM420.004 23.3835L393.404 67.4835L395.117 68.5165L421.717 24.4165L420.004 23.3835ZM394.261 67H386.661V69H394.261V67ZM387.648 67.841L380.548 23.741L378.573 24.0589L385.673 68.159L387.648 67.841ZM378.584 23.6852L368.884 67.7852L370.837 68.2148L380.537 24.1148L378.584 23.6852ZM369.861 67H352.661V69H369.861V67ZM353.637 68.2152L368.337 1.51522L366.384 1.08477L351.684 67.7848L353.637 68.2152ZM367.361 2.3H390.661V0.299995H367.361V2.3ZM389.673 1.45527L395.473 38.3553L397.448 38.0447L391.648 1.14472L389.673 1.45527ZM397.318 38.7138L419.418 1.81381L417.703 0.786182L395.603 37.6862L397.318 38.7138ZM418.561 2.3H443.061V0.299995H418.561V2.3ZM442.084 1.08477L427.384 67.7848L429.337 68.2152L444.037 1.51522L442.084 1.08477ZM7.90156 172.8L7.26132 173.568L7.27208 173.577L7.90156 172.8ZM0.601563 151L-0.37474 150.784L-0.376984 150.794L-0.379018 150.804L0.601563 151ZM9.40156 111.3V110.3H8.59895L8.42526 111.084L9.40156 111.3ZM26.9016 111.3L27.8779 111.516L28.1471 110.3H26.9016V111.3ZM18.2016 150.6L19.1207 150.994L19.1577 150.908L19.1779 150.816L18.2016 150.6ZM17.9016 153.4H16.9016V153.411L16.9018 153.422L17.9016 153.4ZM21.3016 161.1L20.6054 161.818L20.6165 161.829L20.6278 161.839L21.3016 161.1ZM46.3016 150.6L45.3252 150.384L45.325 150.385L46.3016 150.6ZM55.0016 111.3V110.3H54.1987L54.0252 111.084L55.0016 111.3ZM72.4016 111.3L73.3783 111.515L73.6451 110.3H72.4016V111.3ZM63.7016 150.9L64.6771 151.12L64.6783 151.115L63.7016 150.9ZM52.9016 171.7L52.2084 170.979L52.2038 170.984L52.9016 171.7ZM30.7016 178.2C20.8941 178.2 13.5532 176.092 8.53104 172.023L7.27208 173.577C12.7833 178.042 20.6423 180.2 30.7016 180.2V178.2ZM8.54175 172.032C3.58819 167.904 1.10156 162.395 1.10156 155.4H-0.898438C-0.898438 162.939 1.81493 169.03 7.26138 173.568L8.54175 172.032ZM1.10156 155.4C1.10156 154.217 1.25765 152.819 1.58214 151.196L-0.379018 150.804C-0.721191 152.515 -0.898438 154.05 -0.898438 155.4H1.10156ZM1.57787 151.216L10.3779 111.516L8.42526 111.084L-0.37474 150.784L1.57787 151.216ZM9.40156 112.3H26.9016V110.3H9.40156V112.3ZM25.9252 111.084L17.2252 150.384L19.1779 150.816L27.8779 111.516L25.9252 111.084ZM17.2824 150.206C17.123 150.578 17.0355 151.047 16.9823 151.543C16.9271 152.058 16.9016 152.68 16.9016 153.4H18.9016C18.9016 152.72 18.926 152.175 18.9709 151.757C19.0176 151.32 19.0801 151.089 19.1207 150.994L17.2824 150.206ZM16.9018 153.422C16.9745 156.691 18.2212 159.506 20.6054 161.818L21.9977 160.382C19.9819 158.427 18.962 156.109 18.9013 153.378L16.9018 153.422ZM20.6278 161.839C23.1291 164.12 26.5301 165.2 30.7016 165.2V163.2C26.873 163.2 24.0074 162.214 21.9753 160.361L20.6278 161.839ZM30.7016 165.2C35.0883 165.2 38.7391 164.012 41.5587 161.554C44.3676 159.105 46.2477 155.486 47.2781 150.815L45.325 150.385C44.3554 154.78 42.6355 157.962 40.2444 160.046C37.864 162.121 34.7149 163.2 30.7016 163.2V165.2ZM47.2779 150.816L55.9779 111.516L54.0252 111.084L45.3252 150.384L47.2779 150.816ZM55.0016 112.3H72.4016V110.3H55.0016V112.3ZM71.4249 111.085L62.7249 150.685L64.6783 151.115L73.3783 111.515L71.4249 111.085ZM62.7261 150.68C60.758 159.405 57.2347 166.146 52.2085 170.979L53.5947 172.421C58.9684 167.254 62.6452 160.128 64.6771 151.12L62.7261 150.68ZM52.2038 170.984C47.3148 175.746 40.2008 178.2 30.7016 178.2V180.2C40.5357 180.2 48.2217 177.654 53.5993 172.416L52.2038 170.984ZM131.702 178V179H132.505L132.678 178.215L131.702 178ZM115.102 178L114.203 178.438L114.477 179H115.102V178ZM95.7016 138.2L96.6005 137.762L95.3442 135.184L94.7251 137.984L95.7016 138.2ZM86.9016 178V179H87.7046L87.878 178.216L86.9016 178ZM69.7016 178L68.725 177.785L68.4572 179H69.7016V178ZM84.4016 111.3V110.3H83.598L83.425 111.085L84.4016 111.3ZM102.102 111.3L102.999 110.859L102.725 110.3H102.102V111.3ZM120.702 149.2L119.804 149.641L121.061 152.201L121.678 149.416L120.702 149.2ZM129.102 111.3V110.3H128.299L128.125 111.084L129.102 111.3ZM146.402 111.3L147.378 111.515L147.646 110.3H146.402V111.3ZM131.702 177H115.102V179H131.702V177ZM116 177.562L96.6005 137.762L94.8027 138.638L114.203 178.438L116 177.562ZM94.7251 137.984L85.9251 177.784L87.878 178.216L96.678 138.416L94.7251 137.984ZM86.9016 177H69.7016V179H86.9016V177ZM70.6781 178.215L85.3781 111.515L83.425 111.085L68.725 177.785L70.6781 178.215ZM84.4016 112.3H102.102V110.3H84.4016V112.3ZM101.204 111.741L119.804 149.641L121.599 148.759L102.999 110.859L101.204 111.741ZM121.678 149.416L130.078 111.516L128.125 111.084L119.725 148.984L121.678 149.416ZM129.102 112.3H146.402V110.3H129.102V112.3ZM145.425 111.085L130.725 177.785L132.678 178.215L147.378 111.515L145.425 111.085ZM160.925 178V179H161.729L161.902 178.215L160.925 178ZM143.725 178L142.748 177.785L142.481 179H143.725V178ZM158.425 111.3V110.3H157.621L157.448 111.085L158.425 111.3ZM175.625 111.3L176.602 111.515L176.869 110.3H175.625V111.3ZM160.925 177H143.725V179H160.925V177ZM144.702 178.215L159.402 111.515L157.448 111.085L142.748 177.785L144.702 178.215ZM158.425 112.3H175.625V110.3H158.425V112.3ZM174.648 111.085L159.948 177.785L161.902 178.215L176.602 111.515L174.648 111.085ZM190.124 178V179H190.928L191.101 178.215L190.124 178ZM172.924 178L171.948 177.785L171.68 179H172.924V178ZM187.624 111.3V110.3H186.821L186.648 111.085L187.624 111.3ZM236.524 111.3L237.499 111.521L237.776 110.3H236.524V111.3ZM233.124 126.3V127.3H233.923L234.099 126.521L233.124 126.3ZM201.524 126.3V125.3H200.721L200.548 126.084L201.524 126.3ZM199.224 136.7L198.248 136.484L197.979 137.7H199.224V136.7ZM230.224 136.7L231.201 136.915L231.468 135.7H230.224V136.7ZM226.924 151.7V152.7H227.728L227.901 151.915L226.924 151.7ZM195.924 151.7V150.7H195.121L194.948 151.485L195.924 151.7ZM190.124 177H172.924V179H190.124V177ZM173.901 178.215L188.601 111.515L186.648 111.085L171.948 177.785L173.901 178.215ZM187.624 112.3H236.524V110.3H187.624V112.3ZM235.549 111.079L232.149 126.079L234.099 126.521L237.499 111.521L235.549 111.079ZM233.124 125.3H201.524V127.3H233.124V125.3ZM200.548 126.084L198.248 136.484L200.201 136.916L202.501 126.516L200.548 126.084ZM199.224 137.7H230.224V135.7H199.224V137.7ZM229.248 136.485L225.948 151.485L227.901 151.915L231.201 136.915L229.248 136.485ZM226.924 150.7H195.924V152.7H226.924V150.7ZM194.948 151.485L189.148 177.785L191.101 178.215L196.901 151.915L194.948 151.485ZM243.727 170.8L243.069 171.553L243.727 170.8ZM245.427 121.5L246.131 122.21L246.134 122.207L245.427 121.5ZM297.627 118.6L296.969 119.353L296.977 119.36L297.627 118.6ZM296.027 167.9L296.734 168.607L296.027 167.9ZM283.527 157.5L284.268 158.172L284.273 158.166L283.527 157.5ZM284.727 129.9L285.419 129.178L284.727 129.9ZM257.927 132L258.668 132.672L258.673 132.666L257.927 132ZM256.727 159.5L257.419 158.778L256.727 159.5ZM267.927 178.2C258.399 178.2 250.577 175.465 244.386 170.047L243.069 171.553C249.677 177.335 257.989 180.2 267.927 180.2V178.2ZM244.386 170.047C238.217 164.65 235.127 157.631 235.127 148.9H233.127C233.127 158.169 236.438 165.75 243.069 171.553L244.386 170.047ZM235.127 148.9C235.127 138.361 238.791 129.485 246.131 122.21L244.723 120.79C236.997 128.448 233.127 137.839 233.127 148.9H235.127ZM246.134 122.207C253.47 114.872 262.577 111.2 273.527 111.2V109.2C262.077 109.2 252.452 113.062 244.72 120.793L246.134 122.207ZM273.527 111.2C282.987 111.2 290.776 113.934 296.969 119.353L298.286 117.847C291.679 112.066 283.401 109.2 273.527 109.2V111.2ZM296.977 119.36C303.21 124.693 306.327 131.642 306.327 140.3H308.327C308.327 131.091 304.978 123.574 298.277 117.84L296.977 119.36ZM306.327 140.3C306.327 150.907 302.662 159.851 295.32 167.193L296.734 168.607C304.459 160.882 308.327 151.426 308.327 140.3H306.327ZM295.32 167.193C287.985 174.528 278.877 178.2 267.927 178.2V180.2C279.377 180.2 289.003 176.338 296.734 168.607L295.32 167.193ZM268.927 165C275.012 165 280.147 162.712 284.268 158.172L282.787 156.828C279.041 160.955 274.442 163 268.927 163V165ZM284.273 158.166C288.379 153.573 290.427 148.032 290.427 141.6H288.427C288.427 147.568 286.542 152.627 282.782 156.834L284.273 158.166ZM290.427 141.6C290.427 136.559 288.771 132.387 285.419 129.178L284.036 130.622C286.95 133.413 288.427 137.041 288.427 141.6H290.427ZM285.419 129.178C282.071 125.972 277.743 124.4 272.527 124.4V126.4C277.312 126.4 281.117 127.828 284.036 130.622L285.419 129.178ZM272.527 124.4C266.437 124.4 261.301 126.726 257.182 131.334L258.673 132.666C262.42 128.474 267.018 126.4 272.527 126.4V124.4ZM257.187 131.328C253.076 135.857 251.027 141.368 251.027 147.8H253.027C253.027 141.832 254.912 136.81 258.668 132.672L257.187 131.328ZM251.027 147.8C251.027 152.841 252.683 157.013 256.036 160.222L257.419 158.778C254.505 155.987 253.027 152.359 253.027 147.8H251.027ZM256.036 160.222C259.384 163.428 263.712 165 268.927 165V163C264.143 163 260.338 161.572 257.419 158.778L256.036 160.222ZM364.59 178V179H365.985L365.537 177.679L364.59 178ZM345.59 178L344.626 178.267L344.829 179H345.59V178ZM339.39 155.6L340.354 155.333L340.151 154.6H339.39V155.6ZM329.79 155.6V154.6H328.985L328.813 155.386L329.79 155.6ZM324.89 178V179H325.695L325.867 178.214L324.89 178ZM307.69 178L306.713 177.785L306.445 179H307.69V178ZM322.39 111.3V110.3H321.586L321.413 111.085L322.39 111.3ZM367.99 116.7L367.339 117.459L367.345 117.464L367.99 116.7ZM369.29 146L370.072 146.623L370.077 146.617L369.29 146ZM356.59 154.4L356.335 153.433L355.299 153.706L355.643 154.721L356.59 154.4ZM353.79 138.5L354.418 139.278L354.422 139.275L353.79 138.5ZM354.39 128.1L353.739 128.859L354.39 128.1ZM336.29 126.3V125.3H335.489L335.314 126.082L336.29 126.3ZM333.09 140.6L332.114 140.382L331.841 141.6H333.09V140.6ZM364.59 177H345.59V179H364.59V177ZM346.554 177.733L340.354 155.333L338.426 155.867L344.626 178.267L346.554 177.733ZM339.39 154.6H329.79V156.6H339.39V154.6ZM328.813 155.386L323.913 177.786L325.867 178.214L330.767 155.814L328.813 155.386ZM324.89 177H307.69V179H324.89V177ZM308.666 178.215L323.366 111.515L321.413 111.085L306.713 177.785L308.666 178.215ZM322.39 112.3H352.79V110.3H322.39V112.3ZM352.79 112.3C358.503 112.3 363.334 114.026 367.339 117.459L368.641 115.941C364.246 112.174 358.943 110.3 352.79 110.3V112.3ZM367.345 117.464C371.377 120.866 373.39 125.281 373.39 130.8H375.39C375.39 124.719 373.136 119.734 368.635 115.936L367.345 117.464ZM373.39 130.8C373.39 136.389 371.757 141.235 368.503 145.383L370.077 146.617C373.622 142.098 375.39 136.811 375.39 130.8H373.39ZM368.508 145.377C365.236 149.482 361.185 152.157 356.335 153.433L356.844 155.367C362.128 153.977 366.544 151.051 370.072 146.623L368.508 145.377ZM355.643 154.721L363.643 178.321L365.537 177.679L357.537 154.079L355.643 154.721ZM346.49 141.6H346.79V139.6H346.49V141.6ZM346.79 141.6C349.879 141.6 352.458 140.862 354.418 139.278L353.161 137.722C351.656 138.938 349.567 139.6 346.79 139.6V141.6ZM354.422 139.275C356.471 137.605 357.49 135.346 357.49 132.6H355.49C355.49 134.788 354.709 136.461 353.158 137.725L354.422 139.275ZM357.49 132.6C357.49 130.5 356.656 128.725 355.041 127.341L353.739 128.859C354.924 129.875 355.49 131.1 355.49 132.6H357.49ZM355.041 127.341C353.45 125.977 351.549 125.3 349.39 125.3V127.3C351.097 127.3 352.53 127.823 353.739 128.859L355.041 127.341ZM349.39 125.3H336.29V127.3H349.39V125.3ZM335.314 126.082L332.114 140.382L334.066 140.818L337.266 126.518L335.314 126.082ZM333.09 141.6H346.49V139.6H333.09V141.6ZM449.503 178V179H450.307L450.48 178.215L449.503 178ZM432.303 178L431.326 177.785L431.059 179H432.303V178ZM442.003 133.9L442.98 134.115L441.147 133.383L442.003 133.9ZM415.403 178V179H415.968L416.259 178.516L415.403 178ZM407.803 178L406.816 178.159L406.951 179H407.803V178ZM400.703 133.9L401.69 133.741L399.726 133.685L400.703 133.9ZM391.003 178V179H391.807L391.98 178.215L391.003 178ZM373.803 178L372.827 177.785L372.559 179H373.803V178ZM388.503 111.3V110.3H387.7L387.527 111.085L388.503 111.3ZM411.803 111.3L412.791 111.145L412.658 110.3H411.803V111.3ZM417.603 148.2L416.615 148.355L417.044 151.08L418.461 148.714L417.603 148.2ZM439.703 111.3V110.3H439.136L438.845 110.786L439.703 111.3ZM464.203 111.3L465.18 111.515L465.448 110.3H464.203V111.3ZM449.503 177H432.303V179H449.503V177ZM433.28 178.215L442.98 134.115L441.026 133.685L431.326 177.785L433.28 178.215ZM441.147 133.383L414.547 177.484L416.259 178.516L442.859 134.416L441.147 133.383ZM415.403 177H407.803V179H415.403V177ZM408.79 177.841L401.69 133.741L399.716 134.059L406.816 178.159L408.79 177.841ZM399.726 133.685L390.026 177.785L391.98 178.215L401.68 134.115L399.726 133.685ZM391.003 177H373.803V179H391.003V177ZM374.78 178.215L389.48 111.515L387.527 111.085L372.827 177.785L374.78 178.215ZM388.503 112.3H411.803V110.3H388.503V112.3ZM410.815 111.455L416.615 148.355L418.591 148.045L412.791 111.145L410.815 111.455ZM418.461 148.714L440.561 111.814L438.845 110.786L416.745 147.686L418.461 148.714ZM439.703 112.3H464.203V110.3H439.703V112.3ZM463.227 111.085L448.527 177.785L450.48 178.215L465.18 111.515L463.227 111.085Z" fill="#6C757D"/>
</svg>
