<svg width="304" height="60" viewBox="0 0 304 60" fill="none" xmlns="http://www.w3.org/2000/svg">
<path d="M97.4521 0H67.3902L63.562 6.63755L79.7703 7.77293L79.1636 8.87918L61.6841 10.0146L56.498 19.0684L72.7641 20.1164L72.1285 21.2081L16.6561 24.8326L14.2003 29.1994L65.7289 32.4309L65.1077 33.5226L36.4181 35.2111L38.5995 43.4061L58.8238 44.6434L58.1881 45.7351L39.6107 47.0597L41.3586 53.9738H76.7656C85.3176 53.9738 100.688 48.2824 102.465 36.3319C102.64 35.2193 102.59 34.0825 102.319 32.9898C102.047 31.897 101.56 30.8706 100.886 29.9722C100.211 29.0738 99.3636 28.3218 98.3939 27.7613C97.4241 27.2008 96.3521 26.8434 95.2419 26.7103C106.322 23.5662 110.078 16.0844 110.872 13.1004C113.53 3.33333 106.698 0 97.4521 0ZM82.6306 36.6667C81.1861 40.5677 76.26 41.9505 73.5297 41.9505H67.6502L73.8186 31.1645H79.6837C81.475 31.1645 84.0319 33.0422 82.6306 36.6667ZM93.1184 16.0116C91.8038 19.1994 88.2501 20.7715 84.8409 20.786H79.7126L85.6065 10.4949H90.5615C92.6994 10.5677 94.3174 13.1004 93.1184 16.0116Z" fill="#CF202E"/>
<path d="M0 53.9884L25.4971 53.9738L29.0508 47.8021L2.47025 49.6798L0 53.9884Z" fill="#CF202E"/>
<path d="M51.3552 0.014556L30.8564 0L28.4006 4.32314L52.9009 5.86608L51.3552 0.014556Z" fill="#CF202E"/>
<path d="M54.0711 10.4949L23.7636 12.4163L21.2933 16.7395L56.3102 19.0684L54.0711 10.4949Z" fill="#CF202E"/>
<path d="M7.0929 41.572L31.781 42.9694L36.2303 35.2111L9.56315 37.2489L7.0929 41.572Z" fill="#CF202E"/>
<path d="M119.453 36.885V52.8967H114.599V36.885H112.23V32.5182H114.599V25.7351H119.453V32.5473H122.342V36.9141L119.453 36.885Z" fill="#161516"/>
<path d="M143.997 44.9345H128.28C128.402 45.4573 128.622 45.9515 128.93 46.3901C129.461 47.2202 130.19 47.903 131.051 48.3759C131.911 48.8489 132.876 49.097 133.856 49.0975C134.789 49.1566 135.72 48.9522 136.544 48.5073C137.369 48.0625 138.054 47.3948 138.522 46.5794H143.636C142.808 48.9694 141.159 50.9824 138.987 52.255C136.815 53.5276 134.264 53.976 131.793 53.5191C129.321 53.0622 127.094 51.7303 125.512 49.7636C123.93 47.797 123.098 45.3253 123.166 42.7948C123.127 41.3651 123.374 39.9422 123.893 38.6108C124.411 37.2794 125.191 36.0669 126.184 35.0454C127.178 34.024 128.365 33.2145 129.676 32.6653C130.986 32.1161 132.393 31.8383 133.813 31.8486C135.196 31.8369 136.568 32.1037 137.848 32.6336C139.127 33.1634 140.289 33.9455 141.265 34.934C142.241 35.9225 143.01 37.0974 143.529 38.3898C144.048 39.6822 144.305 41.066 144.286 42.46C144.282 43.2932 144.186 44.1233 143.997 44.9345ZM133.885 36.3319C132.524 36.2685 131.188 36.7063 130.124 37.5635C129.061 38.4207 128.344 39.6386 128.106 40.9898H139.302C139.146 39.6686 138.496 38.4571 137.484 37.6024C136.472 36.7476 135.174 36.3141 133.856 36.3901L133.885 36.3319Z" fill="#161516"/>
<path d="M162.921 52.9403V50.4076C162.012 51.3891 160.918 52.178 159.702 52.7279C158.487 53.2778 157.175 53.5776 155.843 53.6099C149.761 53.6099 146.005 48.428 146.005 42.6201C145.945 41.2383 146.161 39.8584 146.641 38.5625C147.12 37.2665 147.853 36.0809 148.797 35.0761C149.74 34.0713 150.874 33.2678 152.132 32.7134C153.389 32.1589 154.745 31.8649 156.117 31.8486C158.339 31.88 160.47 32.741 162.098 34.2649C162.368 34.5192 162.61 34.8023 162.82 35.1092V32.5473H167.269V52.9258L162.921 52.9403ZM156.868 36.3901C156.044 36.4026 155.23 36.5827 154.476 36.9197C153.723 37.2567 153.044 37.7436 152.482 38.3512C151.919 38.9587 151.484 39.6745 151.203 40.4556C150.921 41.2367 150.799 42.067 150.844 42.8967C150.823 43.7092 150.963 44.5179 151.256 45.2753C151.548 46.0327 151.988 46.7237 152.549 47.3079C153.11 47.8921 153.781 48.3577 154.523 48.6775C155.264 48.9972 156.062 49.1648 156.868 49.1703C157.681 49.1622 158.485 48.987 159.228 48.6555C159.972 48.324 160.641 47.8431 161.194 47.2423C161.747 46.6414 162.172 45.9333 162.445 45.1611C162.717 44.3888 162.83 43.5688 162.777 42.7511C162.828 41.9367 162.713 41.1203 162.44 40.3521C162.166 39.584 161.74 38.8804 161.186 38.2846C160.633 37.6888 159.964 37.2133 159.222 36.8875C158.479 36.5617 157.678 36.3925 156.868 36.3901Z" fill="#161516"/>
<path d="M196.233 52.9403V41.6157C196.233 39.0102 195.54 36.3318 192.391 36.3318C191.717 36.3347 191.055 36.5115 190.468 36.8453C189.882 37.1791 189.39 37.6588 189.039 38.2387C188.454 39.5376 188.205 40.965 188.317 42.3872V52.9403H183.463V41.6157C183.463 38.9374 182.481 36.3318 179.404 36.3318C175.764 36.3318 175.547 40 175.547 42.7656V52.9548H170.693V32.5764H175.142V34.294H175.215C175.828 33.4608 176.642 32.7989 177.58 32.371C178.517 31.9431 179.548 31.7633 180.574 31.8486C181.727 31.8407 182.862 32.1293 183.874 32.6872C184.885 33.245 185.738 34.0536 186.352 35.0364C187.075 33.9825 188.057 33.135 189.201 32.5764C190.345 32.0178 191.613 31.7671 192.882 31.8486C194.164 31.7998 195.439 32.0611 196.6 32.6106C197.761 33.1602 198.775 33.982 199.556 35.0072C200.664 36.8117 201.198 38.9144 201.087 41.0334V52.9403H196.233Z" fill="#161516"/>
<path d="M213.294 53.4206C212.478 53.4495 211.665 53.3081 210.906 53.0053C210.147 52.7026 209.459 52.2451 208.884 51.6614C208.309 51.0778 207.859 50.3807 207.564 49.6138C207.269 48.847 207.135 48.027 207.169 47.2052V46.9869H209.711C209.711 49.3013 210.853 51.1062 213.294 51.1062C213.783 51.1585 214.278 51.1021 214.743 50.9411C215.208 50.78 215.632 50.5183 215.986 50.1741C216.34 49.83 216.615 49.4119 216.791 48.9493C216.967 48.4866 217.041 47.9907 217.007 47.4963C217.007 42.1688 207.747 44.5851 207.747 37.9039C207.73 37.1528 207.867 36.4064 208.149 35.7109C208.431 35.0155 208.852 34.386 209.386 33.8616C209.92 33.3373 210.555 32.9293 211.252 32.6631C211.95 32.3969 212.694 32.2782 213.438 32.3144C214.159 32.3044 214.875 32.4411 215.542 32.7162C216.21 32.9914 216.815 33.3994 217.322 33.9158C217.829 34.4323 218.228 35.0465 218.494 35.7217C218.76 36.397 218.888 37.1194 218.87 37.8457H216.313C216.329 37.4389 216.263 37.0332 216.12 36.6525C215.977 36.2717 215.76 35.9238 215.481 35.6293C215.202 35.3347 214.867 35.0996 214.497 34.9377C214.126 34.7759 213.727 34.6906 213.323 34.687C212.924 34.6687 212.526 34.7338 212.153 34.8783C211.78 35.0229 211.442 35.2437 211.158 35.5268C210.874 35.8099 210.652 36.1492 210.505 36.5233C210.358 36.8973 210.289 37.298 210.304 37.7001C210.304 42.2853 219.564 39.8981 219.564 47.3217C219.606 48.1527 219.471 48.9832 219.168 49.7572C218.865 50.5313 218.4 51.2308 217.806 51.8088C217.212 52.3867 216.502 52.8297 215.724 53.1077C214.945 53.3858 214.117 53.4925 213.294 53.4206Z" fill="#161516"/>
<path d="M232.81 53.4207C231.296 53.4492 229.797 53.1064 228.443 52.4218C227.089 51.7371 225.921 50.7312 225.039 49.4905H224.966V60.0728H222.467V32.8384H225.024V36.3901H225.096C225.965 35.127 227.128 34.0978 228.483 33.3923C229.837 32.6869 231.343 32.3268 232.868 32.3435C235.646 32.3435 238.31 33.4554 240.274 35.4345C242.238 37.4136 243.342 40.0978 243.342 42.8966C243.342 45.6955 242.238 48.3797 240.274 50.3588C238.31 52.3379 235.646 53.4498 232.868 53.4498L232.81 53.4207ZM232.81 34.6434C230.703 34.7327 228.712 35.639 227.252 37.1729C225.793 38.7068 224.978 40.7497 224.978 42.8748C224.978 44.9999 225.793 47.0428 227.252 48.5767C228.712 50.1107 230.703 51.0169 232.81 51.1063C233.887 51.1402 234.958 50.9527 235.96 50.5551C236.962 50.1575 237.872 49.5582 238.636 48.7938C239.4 48.0295 240.001 47.1162 240.403 46.1097C240.805 45.1032 240.998 44.0248 240.972 42.9403C241.01 41.8466 240.826 40.7568 240.43 39.7377C240.034 38.7187 239.435 37.792 238.671 37.0148C237.906 36.2376 236.992 35.6263 235.984 35.2184C234.976 34.8106 233.896 34.6149 232.81 34.6434Z" fill="#161516"/>
<path d="M256.516 53.4207C254.445 53.4207 252.42 52.8017 250.698 51.6421C248.975 50.4825 247.633 48.8344 246.84 46.906C246.048 44.9777 245.84 42.8558 246.244 40.8087C246.648 38.7616 247.646 36.8812 249.111 35.4053C250.575 33.9295 252.441 32.9244 254.473 32.5172C256.505 32.11 258.61 32.319 260.524 33.1177C262.438 33.9164 264.074 35.2691 265.225 37.0045C266.375 38.74 266.99 40.7803 266.99 42.8675C266.982 45.664 265.876 48.3438 263.914 50.3212C261.951 52.2987 259.292 53.413 256.516 53.4207ZM256.516 34.6434C254.883 34.5853 253.27 35.0217 251.886 35.8962C250.501 36.7707 249.408 38.0432 248.748 39.5495C248.088 41.0558 247.891 42.7268 248.183 44.347C248.474 45.9671 249.241 47.4621 250.384 48.639C251.527 49.8158 252.994 50.6207 254.595 50.9496C256.196 51.2786 257.858 51.1165 259.367 50.4844C260.876 49.8522 262.162 48.779 263.06 47.4032C263.958 46.0274 264.426 44.4121 264.404 42.7656C264.404 40.6463 263.583 38.6107 262.115 37.0932C260.647 35.5757 258.648 34.6965 256.545 34.6434H256.516Z" fill="#161516"/>
<path d="M273.028 41.1791V52.9403H270.485V32.8384H273.028V35.7496H273.1C274.198 33.1732 276.134 32.5182 278.72 32.329V35.051C277.942 35.0616 277.174 35.2304 276.463 35.5472C275.751 35.8639 275.111 36.3221 274.579 36.8943C274.048 37.4666 273.637 38.141 273.37 38.8773C273.103 39.6135 272.987 40.3964 273.028 41.1791Z" fill="#161516"/>
<path d="M286.029 35.1529V52.9403H283.429V35.1529H279.24V32.8385H283.429V25.7351H286.029V32.8385H290.811V35.1529H286.029Z" fill="#161516"/>
<path d="M297.73 53.4206C296.914 53.4493 296.101 53.3079 295.341 53.0054C294.581 52.7028 293.892 52.2455 293.315 51.6621C292.739 51.0787 292.289 50.3818 291.992 49.6149C291.695 48.848 291.559 48.0277 291.591 47.2052V46.9869H294.148C294.148 49.3013 295.275 51.1062 297.73 51.1062C298.22 51.1585 298.714 51.1021 299.179 50.9411C299.644 50.78 300.069 50.5183 300.423 50.1741C300.777 49.83 301.051 49.4119 301.228 48.9493C301.404 48.4866 301.477 47.9907 301.443 47.4963C301.443 42.1688 292.183 44.5851 292.183 37.9039C292.166 37.1528 292.303 36.4064 292.585 35.7109C292.867 35.0155 293.289 34.386 293.822 33.8616C294.356 33.3373 294.992 32.9293 295.689 32.6631C296.386 32.3969 297.13 32.2782 297.875 32.3144C298.601 32.2964 299.322 32.4272 299.997 32.6988C300.671 32.9704 301.283 33.3772 301.796 33.8945C302.31 34.4117 302.713 35.0287 302.983 35.7079C303.252 36.3871 303.382 37.1144 303.364 37.8457H300.807C300.821 37.4394 300.754 37.0345 300.61 36.6547C300.466 36.2749 300.249 35.9277 299.971 35.6336C299.692 35.3395 299.358 35.1043 298.988 34.9417C298.619 34.7792 298.221 34.6926 297.817 34.687C297.414 34.6543 297.008 34.7073 296.626 34.8426C296.245 34.9779 295.896 35.1924 295.601 35.4723C295.307 35.7523 295.075 36.0913 294.919 36.4676C294.763 36.8438 294.687 37.2489 294.697 37.6565C294.697 42.2416 303.957 39.8544 303.957 47.278C304.005 48.1086 303.875 48.9399 303.578 49.716C303.28 50.492 302.821 51.1947 302.231 51.7768C301.641 52.3589 300.934 52.8068 300.157 53.0903C299.381 53.3739 298.554 53.4865 297.73 53.4206Z" fill="#161516"/>
</svg>
