<svg width="282" height="280" viewBox="0 0 282 280" fill="none" xmlns="http://www.w3.org/2000/svg">
<path d="M228.185 100.862C227.379 99.073 227.247 97.359 227.79 95.7204C228.345 94.0758 229.495 92.8631 231.24 92.0823C232.412 91.5577 233.59 91.2789 234.775 91.2458C235.98 91.2201 237.078 91.4025 238.07 91.7929C239.062 92.1833 239.949 92.749 240.73 93.4902C241.525 94.2253 242.139 95.0736 242.572 96.0351C243.155 97.3304 243.378 98.5706 243.239 99.7557C243.101 100.941 242.651 101.985 241.889 102.887L240.557 101.582C241.727 100.128 241.891 98.4661 241.049 96.5966C240.376 95.101 239.184 94.0539 237.474 93.4553C235.765 92.8567 233.978 92.9747 232.113 93.8092C230.795 94.3993 229.906 95.2864 229.447 96.4705C229.002 97.6487 229.089 98.9255 229.708 100.301C230.297 101.61 231.341 102.578 232.84 103.207L232.472 104.84C230.503 104.165 229.074 102.839 228.185 100.862Z" fill="#6C757D"/>
<path d="M231.523 108.754L231.025 107.184L241.825 106.26L242.322 107.83L240.664 107.959C241.431 108.301 242.044 108.715 242.504 109.2C242.978 109.68 243.347 110.339 243.613 111.177L241.891 111.325C241.894 111.14 241.838 110.866 241.723 110.504C241.546 109.945 241.213 109.451 240.725 109.021C240.241 108.605 239.714 108.295 239.144 108.09L231.523 108.754Z" fill="#6C757D"/>
<path d="M234.143 119.516C233.818 117.955 233.974 116.63 234.613 115.544C235.254 114.471 236.276 113.792 237.678 113.505C239.408 113.151 241.007 113.413 242.473 114.294C243.939 115.174 244.842 116.43 245.182 118.064C245.463 119.411 245.266 120.579 244.592 121.568C243.919 122.557 242.917 123.188 241.587 123.46C241.157 123.548 240.666 123.589 240.113 123.583L238.349 115.115C238.32 115.121 238.24 115.13 238.108 115.142C237.994 115.165 237.908 115.183 237.851 115.195C236.993 115.37 236.327 115.828 235.855 116.567C235.383 117.306 235.263 118.234 235.496 119.351C235.735 120.498 236.278 121.425 237.127 122.132L236.123 122.898C235.093 122.033 234.433 120.906 234.143 119.516ZM239.565 115.046L241.016 122.009C241.136 122.014 241.275 122.001 241.432 121.968C242.319 121.787 242.99 121.358 243.446 120.682C243.905 120.021 244.03 119.189 243.821 118.186C243.627 117.254 243.11 116.494 242.271 115.903C241.447 115.31 240.545 115.024 239.565 115.046Z" fill="#6C757D"/>
<path d="M246.922 130.927C246.981 131.729 246.86 132.464 246.559 133.13C246.272 133.81 245.844 134.346 245.272 134.738L246.961 134.993L247.084 136.634L236.352 135.037L236.23 133.396L237.762 133.618C236.511 132.753 235.835 131.635 235.733 130.263C235.64 129.024 235.952 128.004 236.669 127.206C237.386 126.408 238.422 125.961 239.777 125.865C241.584 125.738 243.196 126.138 244.612 127.064C246.03 128.006 246.8 129.293 246.922 130.927ZM245.474 131.249C245.387 130.082 244.819 129.154 243.772 128.465C242.725 127.777 241.538 127.479 240.212 127.572C239.236 127.641 238.476 127.966 237.934 128.547C237.406 129.126 237.175 129.861 237.241 130.751C237.288 131.378 237.501 131.972 237.879 132.532C238.272 133.091 238.737 133.527 239.273 133.841L244.007 134.564C244.482 134.252 244.858 133.8 245.136 133.208C245.415 132.631 245.528 131.978 245.474 131.249Z" fill="#6C757D"/>
<path d="M236.038 141.25C236.056 140.49 236.232 139.902 236.564 139.488C236.896 139.073 237.383 138.875 238.026 138.894C238.215 138.9 238.419 138.927 238.637 138.978L245.479 140.712L245.523 138.958L246.939 139.328L246.895 141.082L249.772 141.802L249.731 143.447L246.855 142.727L246.802 144.876L245.385 144.505L245.439 142.357L238.945 140.72C238.771 140.686 238.625 140.667 238.508 140.663C237.851 140.644 237.513 140.986 237.496 141.687C237.486 142.096 237.594 142.436 237.822 142.706L236.502 142.865C236.177 142.417 236.022 141.878 236.038 141.25Z" fill="#6C757D"/>
<path d="M235.354 149.925C235.553 148.344 236.131 147.145 237.089 146.326C238.044 145.522 239.233 145.212 240.653 145.397C242.408 145.625 243.836 146.393 244.939 147.701C246.042 149.009 246.489 150.489 246.281 152.142C246.11 153.505 245.545 154.545 244.585 155.26C243.626 155.975 242.472 156.245 241.124 156.07C240.689 156.013 240.211 155.892 239.689 155.706L240.766 147.136C240.737 147.132 240.658 147.115 240.53 147.083C240.414 147.068 240.327 147.057 240.269 147.049C239.399 146.936 238.62 147.152 237.933 147.696C237.246 148.24 236.831 149.078 236.689 150.209C236.543 151.369 236.757 152.421 237.331 153.366L236.132 153.762C235.437 152.611 235.178 151.332 235.354 149.925ZM241.94 147.465L241.055 154.513C241.167 154.557 241.303 154.59 241.462 154.61C242.361 154.727 243.136 154.541 243.787 154.051C244.436 153.575 244.825 152.83 244.952 151.815C245.071 150.872 244.828 149.986 244.226 149.156C243.637 148.327 242.875 147.764 241.94 147.465Z" fill="#6C757D"/>
<path d="M230.057 159.024L231.285 160.016C231.094 160.231 230.935 160.541 230.807 160.944C230.631 161.501 230.807 162.11 231.335 162.77L232.578 164.296L243.342 165.632L242.82 167.282L234.069 166.132L240.699 173.986L240.144 175.741L230.461 164.077C229.373 162.762 229.023 161.492 229.411 160.266C229.569 159.765 229.785 159.351 230.057 159.024Z" fill="#6C757D"/>
<path d="M227.976 176.1C228.59 174.744 229.465 173.843 230.598 173.399C231.739 172.973 232.955 173.056 234.246 173.646C235.804 174.358 236.936 175.494 237.644 177.054C238.345 178.626 238.352 180.171 237.665 181.687C237.051 183.043 236.173 183.934 235.032 184.359C233.885 184.798 232.666 184.722 231.375 184.131C229.817 183.419 228.688 182.277 227.987 180.704C227.292 179.15 227.289 177.616 227.976 176.1ZM229.296 176.752C228.814 177.815 228.856 178.91 229.422 180.036C230.002 181.168 230.878 182.002 232.049 182.537C232.967 182.957 233.807 183.036 234.569 182.775C235.344 182.519 235.936 181.939 236.346 181.035C236.828 179.971 236.779 178.873 236.199 177.741C235.633 176.616 234.764 175.785 233.592 175.249C232.674 174.829 231.827 174.747 231.052 175.003C230.291 175.264 229.705 175.847 229.296 176.752Z" fill="#6C757D"/>
<path d="M232.785 190.537L231.911 191.927L226.859 186.922C226.588 186.665 226.397 186.501 226.286 186.43C225.32 185.82 224.449 186.133 223.673 187.369C223.106 188.271 222.998 189.489 223.349 191.022L228.989 196.579L228.116 197.969L220.393 190.319L221.266 188.929L222.379 190.047C222.032 188.343 222.184 186.972 222.836 185.934C223.349 185.119 223.948 184.591 224.634 184.352C225.333 184.12 226.036 184.227 226.741 184.673C226.927 184.79 227.155 184.978 227.426 185.235L232.785 190.537Z" fill="#6C757D"/>
<path d="M217.435 194.355L218.448 193.064L225.34 201.471L224.327 202.762L223.279 201.463C223.432 202.289 223.439 203.028 223.299 203.68C223.172 204.341 222.838 205.016 222.298 205.704L221.198 204.365C221.352 204.264 221.546 204.064 221.781 203.765C222.141 203.306 222.36 202.754 222.437 202.11C222.506 201.476 222.463 200.867 222.308 200.281L217.435 194.355Z" fill="#6C757D"/>
<path d="M207.032 205.496C208.485 204.145 209.998 203.589 211.572 203.826L211.58 205.378C211.047 205.254 210.431 205.287 209.731 205.477C209.042 205.678 208.425 206.031 207.88 206.537C207.345 207.034 207.043 207.565 206.971 208.132C206.889 208.708 207.022 209.184 207.371 209.559C207.62 209.828 207.979 209.935 208.446 209.881C208.913 209.827 209.414 209.681 209.95 209.443C210.485 209.226 211.03 209.009 211.586 208.793C212.13 208.587 212.676 208.499 213.223 208.531C213.78 208.574 214.243 208.793 214.612 209.191C215.239 209.867 215.506 210.679 215.411 211.627C215.316 212.576 214.814 213.472 213.906 214.316C213.265 214.911 212.568 215.329 211.815 215.569C211.062 215.829 210.382 215.901 209.776 215.784L209.733 214.354C210.183 214.475 210.733 214.435 211.381 214.232C212.018 214.04 212.577 213.721 213.058 213.274C213.56 212.807 213.862 212.317 213.962 211.804C214.052 211.3 213.938 210.877 213.619 210.533C213.38 210.275 213.031 210.179 212.574 210.244C212.127 210.32 211.636 210.466 211.101 210.683C210.565 210.921 210.02 211.137 209.465 211.333C208.91 211.549 208.349 211.631 207.782 211.578C207.225 211.535 206.752 211.305 206.363 210.886C205.706 210.177 205.42 209.313 205.508 208.292C205.594 207.291 206.102 206.359 207.032 205.496Z" fill="#6C757D"/>
<path d="M199.967 211.484C200.567 211.02 201.133 210.786 201.664 210.782C202.196 210.778 202.659 211.031 203.054 211.541C203.17 211.692 203.278 211.867 203.378 212.068L206.388 218.462L207.773 217.392L208.387 218.722L207.002 219.793L208.275 222.475L206.977 223.479L205.704 220.796L204.008 222.108L203.394 220.777L205.09 219.466L202.226 213.403C202.141 213.246 202.063 213.122 201.992 213.029C201.588 212.507 201.11 212.461 200.556 212.889C200.233 213.139 200.039 213.437 199.975 213.783L199.012 212.86C199.152 212.326 199.47 211.867 199.967 211.484Z" fill="#6C757D"/>
<path d="M196.83 209.354L197.145 210.9C196.86 210.943 196.54 211.078 196.183 211.306C195.691 211.62 195.438 212.199 195.424 213.042L195.409 215.007L202.864 222.917L201.407 223.847L195.388 217.368L195.488 227.628L193.939 228.618L193.915 213.485C193.915 211.781 194.456 210.584 195.538 209.893C195.981 209.61 196.411 209.431 196.83 209.354Z" fill="#6C757D"/>
<path d="M187.573 219.752L189.023 218.984L193.06 233.428L191.61 234.196L187.573 219.752Z" fill="#6C757D"/>
<path d="M179.771 223.165C181.237 222.547 182.566 222.448 183.758 222.867C184.937 223.292 185.807 224.165 186.367 225.486C187.059 227.117 187.12 228.736 186.55 230.343C185.979 231.95 184.928 233.077 183.395 233.723C182.131 234.256 180.947 234.286 179.843 233.813C178.739 233.341 177.921 232.478 177.389 231.224C177.218 230.82 177.08 230.345 176.976 229.801L184.923 226.452C184.911 226.425 184.886 226.348 184.848 226.221C184.803 226.114 184.768 226.033 184.745 225.979C184.402 225.17 183.821 224.604 183.003 224.282C182.185 223.959 181.251 224.019 180.202 224.461C179.127 224.914 178.327 225.625 177.802 226.593L176.852 225.754C177.494 224.577 178.467 223.714 179.771 223.165ZM185.233 227.632L178.698 230.387C178.717 230.506 178.758 230.639 178.821 230.788C179.176 231.624 179.729 232.201 180.483 232.519C181.222 232.843 182.063 232.806 183.004 232.41C183.878 232.041 184.521 231.389 184.932 230.453C185.349 229.53 185.449 228.59 185.233 227.632Z" fill="#6C757D"/>
<path d="M155.863 229.606C157.802 229.34 159.483 229.701 160.905 230.687C162.329 231.688 163.175 233.138 163.442 235.036C163.622 236.311 163.564 237.522 163.269 238.67C162.961 239.835 162.483 240.838 161.835 241.68C161.187 242.522 160.4 243.214 159.473 243.754C158.548 244.309 157.565 244.658 156.523 244.801C155.12 244.993 153.869 244.854 152.77 244.385C151.672 243.915 150.795 243.186 150.139 242.198L151.759 241.289C152.831 242.826 154.38 243.455 156.405 243.178C158.026 242.956 159.359 242.108 160.405 240.636C161.451 239.163 161.831 237.413 161.545 235.384C161.343 233.95 160.737 232.844 159.728 232.067C158.721 231.304 157.472 231.025 155.982 231.229C154.564 231.423 153.346 232.151 152.33 233.413L150.865 232.595C152.056 230.896 153.722 229.899 155.863 229.606Z" fill="#6C757D"/>
<path d="M147.506 230.579L149.149 230.542L147.089 241.187L145.445 241.224L145.774 239.593C145.236 240.234 144.672 240.708 144.081 241.014C143.49 241.334 142.756 241.504 141.88 241.524L142.207 239.827C142.384 239.882 142.662 239.905 143.042 239.896C143.626 239.883 144.192 239.702 144.738 239.353C145.269 239.005 145.711 238.585 146.063 238.094L147.506 230.579Z" fill="#6C757D"/>
<path d="M136.521 230.07C138.109 230.199 139.337 230.724 140.204 231.645C141.057 232.564 141.429 233.738 141.319 235.167C141.184 236.931 140.492 238.392 139.245 239.553C137.998 240.713 136.544 241.226 134.883 241.091C133.514 240.98 132.447 240.461 131.682 239.533C130.918 238.606 130.588 237.465 130.692 236.109C130.725 235.672 130.821 235.188 130.979 234.658L139.589 235.357C139.592 235.327 139.605 235.248 139.63 235.118C139.639 235.001 139.645 234.914 139.65 234.856C139.717 233.981 139.461 233.212 138.881 232.549C138.302 231.886 137.444 231.509 136.307 231.417C135.142 231.322 134.103 231.582 133.191 232.198L132.732 231.017C133.845 230.271 135.108 229.955 136.521 230.07ZM139.322 236.545L132.242 235.971C132.204 236.085 132.178 236.222 132.166 236.383C132.097 237.286 132.324 238.053 132.847 238.682C133.356 239.31 134.12 239.665 135.14 239.748C136.087 239.825 136.959 239.543 137.756 238.904C138.551 238.279 139.074 237.493 139.322 236.545Z" fill="#6C757D"/>
<path d="M122.144 239.146C121.358 238.977 120.686 238.653 120.129 238.174C119.555 237.707 119.158 237.144 118.939 236.484L118.231 238.035L116.622 237.689L121.1 227.825L122.708 228.171L122.075 229.581C123.248 228.623 124.507 228.289 125.851 228.578C127.066 228.839 127.958 229.427 128.528 230.342C129.097 231.257 129.242 232.379 128.962 233.708C128.588 235.481 127.763 236.917 126.485 238.017C125.192 239.114 123.745 239.49 122.144 239.146ZM122.232 237.663C123.376 237.909 124.422 237.626 125.371 236.814C126.319 236.001 126.93 234.945 127.204 233.644C127.406 232.686 127.303 231.864 126.894 231.179C126.483 230.507 125.841 230.078 124.969 229.89C124.354 229.758 123.726 229.795 123.085 230C122.441 230.221 121.894 230.544 121.446 230.97L119.454 235.317C119.623 235.861 119.953 236.351 120.445 236.785C120.922 237.217 121.518 237.509 122.232 237.663Z" fill="#6C757D"/>
<path d="M115.146 225.737C115.87 225.972 116.384 226.309 116.69 226.746C116.995 227.183 117.05 227.707 116.854 228.319C116.796 228.5 116.712 228.688 116.604 228.883L113.043 234.958L114.712 235.501L113.965 236.755L112.295 236.212L110.807 238.769L109.241 238.261L110.729 235.704L108.684 235.039L109.432 233.785L111.477 234.45L114.848 228.681C114.929 228.523 114.988 228.388 115.023 228.277C115.224 227.651 114.99 227.23 114.323 227.013C113.933 226.886 113.577 226.894 113.255 227.035L113.469 225.722C113.989 225.538 114.548 225.543 115.146 225.737Z" fill="#6C757D"/>
<path d="M107.079 222.646C108.54 223.287 109.53 224.184 110.051 225.337C110.557 226.484 110.526 227.714 109.955 229.026C109.251 230.646 108.119 231.799 106.56 232.486C105.001 233.173 103.457 233.181 101.929 232.51C100.669 231.958 99.829 231.119 99.4085 229.993C98.9879 228.868 99.0483 227.683 99.5896 226.438C99.7642 226.036 100.013 225.611 100.335 225.163L108.256 228.639C108.268 228.612 108.307 228.542 108.372 228.427C108.419 228.32 108.454 228.24 108.477 228.186C108.826 227.383 108.835 226.573 108.503 225.758C108.171 224.943 107.483 224.306 106.437 223.847C105.365 223.377 104.297 223.282 103.233 223.565L103.184 222.3C104.481 221.96 105.779 222.076 107.079 222.646ZM107.615 229.673L101.102 226.815C101.028 226.91 100.96 227.031 100.896 227.178C100.535 228.009 100.499 228.806 100.789 229.571C101.066 230.33 101.673 230.915 102.611 231.327C103.482 231.709 104.399 231.729 105.362 231.387C106.319 231.057 107.07 230.486 107.615 229.673Z" fill="#6C757D"/>
<path d="M99.5416 214.851L98.2503 215.748C98.097 215.504 97.8444 215.263 97.4925 215.025C97.0072 214.697 96.375 214.692 95.5959 215.011L93.7883 215.771L89.5283 225.73L88.0904 224.758L91.6154 216.68L82.2479 220.811L80.719 219.778L94.5843 213.799C96.1465 213.129 97.4615 213.155 98.5293 213.876C98.9661 214.172 99.3036 214.496 99.5416 214.851Z" fill="#6C757D"/>
<path d="M83.8251 208.102C84.9554 209.079 85.5768 210.176 85.6893 211.391C85.7812 212.608 85.3653 213.753 84.4414 214.825C83.3271 216.117 81.9243 216.881 80.2329 217.116C78.5305 217.341 77.0476 216.908 75.7843 215.816C74.654 214.839 74.043 213.742 73.9511 212.525C73.8481 211.298 74.2585 210.149 75.1823 209.077C76.2966 207.784 77.705 207.025 79.4074 206.8C81.0893 206.576 82.5619 207.01 83.8251 208.102ZM82.8347 209.184C81.9482 208.418 80.8867 208.146 79.6502 208.369C78.4042 208.604 77.3621 209.207 76.524 210.179C75.8669 210.942 75.5584 211.726 75.5985 212.532C75.6291 213.349 76.0212 214.083 76.7747 214.734C77.6612 215.501 78.7275 215.767 79.9735 215.533C81.21 215.309 82.2473 214.712 83.0854 213.739C83.7426 212.977 84.0559 212.187 84.0252 211.37C83.9851 210.564 83.5883 209.835 82.8347 209.184Z" fill="#6C757D"/>
<path d="M68.7527 208.771L67.659 207.538L73.8502 204.099C74.1716 203.911 74.3813 203.774 74.4795 203.687C75.3303 202.932 75.2696 202.006 74.2974 200.91C73.5878 200.11 72.449 199.662 70.8811 199.565L63.9987 203.412L62.905 202.18L72.3683 196.923L73.462 198.156L72.0834 198.909C73.8139 199.058 75.0875 199.592 75.9041 200.513C76.5458 201.236 76.8871 201.961 76.9281 202.689C76.9582 203.426 76.6623 204.071 76.0406 204.623C75.8769 204.768 75.6345 204.934 75.3132 205.121L68.7527 208.771Z" fill="#6C757D"/>
<path d="M69.3839 193.051L70.3431 194.391L60.3776 198.625L59.4184 197.285L60.953 196.647C60.1187 196.559 59.4082 196.356 58.8213 196.037C58.2225 195.727 57.6673 195.214 57.1558 194.5L58.7437 193.823C58.7986 194 58.9368 194.244 59.1585 194.553C59.4996 195.03 59.9686 195.397 60.5655 195.654C61.1539 195.9 61.7504 196.032 62.3552 196.05L69.3839 193.051Z" fill="#6C757D"/>
<path d="M61.5624 179.955C62.4588 181.734 62.5769 183.346 61.9166 184.791L60.4249 184.36C60.6908 183.882 60.8286 183.281 60.8386 182.555C60.8354 181.835 60.6658 181.142 60.3297 180.475C60.0001 179.821 59.5735 179.38 59.0497 179.151C58.5194 178.909 58.026 178.903 57.5696 179.131C57.2435 179.295 57.0423 179.609 56.9659 180.073C56.8895 180.538 56.8918 181.061 56.9727 181.643C57.034 182.218 57.0921 182.804 57.147 183.399C57.1952 183.981 57.129 184.53 56.9483 185.047C56.7545 185.57 56.4164 185.953 55.9339 186.195C55.1123 186.607 54.2597 186.633 53.3759 186.273C52.4922 185.914 51.7702 185.178 51.21 184.066C50.8145 183.282 50.6053 182.494 50.5823 181.702C50.5396 180.904 50.6576 180.231 50.9362 179.681L52.3198 180.044C52.0797 180.443 51.9677 180.983 51.9837 181.663C51.9931 182.33 52.1462 182.958 52.4428 183.546C52.7525 184.161 53.1399 184.589 53.6049 184.831C54.0633 185.06 54.5012 185.07 54.9185 184.861C55.2315 184.704 55.4196 184.396 55.483 183.938C55.5333 183.487 55.5278 182.974 55.4665 182.398C55.3856 181.816 55.3275 181.231 55.2923 180.642C55.2374 180.047 55.3134 179.485 55.5202 178.955C55.714 178.432 56.0652 178.043 56.5738 177.788C57.4344 177.356 58.3426 177.326 59.2983 177.699C60.2343 178.065 60.989 178.817 61.5624 179.955Z" fill="#6C757D"/>
<path d="M57.6474 171.253C57.9268 171.962 57.995 172.572 57.852 173.084C57.7089 173.596 57.3384 173.969 56.7406 174.203C56.564 174.272 56.3657 174.326 56.1457 174.365L49.1818 175.441L49.8267 177.076L48.381 177.288L47.7361 175.654L44.812 176.115L44.2074 174.582L47.1314 174.121L46.3414 172.119L47.7871 171.907L48.5771 173.909L55.1828 172.879C55.3566 172.842 55.4978 172.803 55.6065 172.76C56.218 172.521 56.3947 172.074 56.1367 171.42C55.9863 171.039 55.754 170.768 55.4398 170.608L56.5901 169.945C57.0639 170.232 57.4163 170.668 57.6474 171.253Z" fill="#6C757D"/>
<path d="M60.6445 169.171L59.0744 169.037C59.1114 168.752 59.0695 168.405 58.9485 167.999C58.7818 167.437 58.2956 167.031 57.49 166.779L55.6081 166.21L45.9743 171.145L45.4802 169.482L53.3485 165.524L43.4728 162.725L42.9475 160.957L57.4786 165.203C59.1137 165.684 60.1147 166.542 60.4815 167.777C60.6316 168.282 60.6859 168.747 60.6445 169.171Z" fill="#6C757D"/>
<path d="M53.1533 157.286L53.495 158.897L38.5256 158.72L38.1838 157.11L53.1533 157.286Z" fill="#6C757D"/>
<path d="M51.9427 148.553C52.1308 150.137 51.8593 151.442 51.1281 152.468C50.3953 153.48 49.3179 154.068 47.896 154.231C46.1403 154.432 44.5705 154.031 43.1863 153.026C41.8022 152.022 41.0118 150.691 40.8151 149.035C40.6529 147.67 40.9506 146.524 41.7084 145.597C42.4661 144.671 43.5196 144.13 44.869 143.975C45.3043 143.925 45.7972 143.928 46.3479 143.982L47.3676 152.569C47.3967 152.565 47.4773 152.563 47.6096 152.563C47.7257 152.55 47.8128 152.54 47.8708 152.533C48.7414 152.433 49.4443 152.036 49.9795 151.341C50.5147 150.646 50.715 149.732 50.5804 148.599C50.4423 147.437 49.9815 146.466 49.1977 145.687L50.2647 145.013C51.216 145.964 51.7753 147.144 51.9427 148.553ZM46.1499 152.532L45.3113 145.471C45.1918 145.455 45.0522 145.456 44.8926 145.475C43.993 145.578 43.2867 145.946 42.7736 146.579C42.2588 147.198 42.0618 148.016 42.1826 149.033C42.2947 149.977 42.743 150.78 43.5275 151.441C44.2974 152.104 45.1716 152.467 46.1499 152.532Z" fill="#6C757D"/>
<path d="M52.2214 124.192C51.9482 126.131 51.1441 127.646 49.8091 128.737C48.4598 129.826 46.8374 130.232 44.942 129.957C43.6687 129.772 42.5211 129.376 41.4992 128.77C40.4648 128.147 39.6317 127.406 38.9999 126.546C38.368 125.686 37.9189 124.735 37.6524 123.692C37.3715 122.647 37.3045 121.603 37.4513 120.561C37.6491 119.158 38.1233 117.993 38.8737 117.069C39.6242 116.144 40.5632 115.505 41.6908 115.152L42.1219 116.965C40.3542 117.564 39.3276 118.877 39.042 120.903C38.8136 122.524 39.2638 124.044 40.3927 125.463C41.5215 126.883 43.0987 127.74 45.1244 128.034C46.5567 128.242 47.7837 127.97 48.8051 127.218C49.8121 126.463 50.4207 125.34 50.6307 123.85C50.8306 122.432 50.4633 121.057 49.5289 119.725L50.7138 118.545C52.0207 120.168 52.5233 122.05 52.2214 124.192Z" fill="#6C757D"/>
<path d="M53.5866 115.672L53.1691 117.261L43.5259 112.259L43.9435 110.67L45.4175 111.449C44.9509 110.75 44.6523 110.073 44.5218 109.418C44.3772 108.759 44.4163 108.006 44.639 107.159L46.1767 107.955C46.0756 108.109 45.9768 108.37 45.8803 108.738C45.7318 109.303 45.7496 109.897 45.9336 110.521C46.1213 111.13 46.4019 111.674 46.7755 112.152L53.5866 115.672Z" fill="#6C757D"/>
<path d="M57.1925 104.955C56.626 106.442 55.7805 107.47 54.6558 108.038C53.5363 108.593 52.3074 108.613 50.9691 108.097C49.3167 107.461 48.1086 106.378 47.3447 104.847C46.5808 103.317 46.4951 101.774 47.0875 100.219C47.576 98.936 48.3713 98.0609 49.4732 97.5934C50.5752 97.1259 51.7611 97.1367 53.0312 97.6258C53.4409 97.7836 53.8776 98.0143 54.3413 98.3181L51.2699 106.382C51.2972 106.393 51.3697 106.429 51.4874 106.49C51.5967 106.532 51.6786 106.563 51.7332 106.584C52.5526 106.9 53.3608 106.875 54.1579 106.509C54.9549 106.143 55.5561 105.428 55.9614 104.363C56.3772 103.272 56.4175 102.2 56.0822 101.148L57.3423 101.046C57.7465 102.328 57.6966 103.631 57.1925 104.955ZM50.2056 105.785L52.7313 99.1532C52.6325 99.0838 52.5079 99.0202 52.3577 98.9624C51.511 98.6363 50.7132 98.6342 49.9643 98.956C49.2205 99.2641 48.6668 99.8958 48.303 100.851C47.9652 101.738 47.9915 102.656 48.382 103.604C48.7588 104.547 49.3667 105.274 50.2056 105.785Z" fill="#6C757D"/>
<path d="M52.2547 88.9373C52.6333 88.2295 53.1287 87.6758 53.741 87.2762C54.3472 86.8568 54.9971 86.6351 55.6908 86.611L54.3971 85.4911L55.1716 84.0433L63.4041 91.1402L62.6296 92.588L61.4506 91.5797C62.0471 92.9787 62.0217 94.2831 61.3746 95.4928C60.7894 96.5867 59.9797 97.2777 58.9455 97.566C57.9114 97.8543 56.795 97.6755 55.5964 97.0297C53.9982 96.1685 52.8473 94.9681 52.1434 93.4283C51.4465 91.8757 51.4836 90.3787 52.2547 88.9373ZM53.6532 89.4422C53.1024 90.4718 53.0863 91.5573 53.6047 92.6987C54.1231 93.8401 54.9687 94.7268 56.1415 95.3588C57.005 95.8241 57.8219 95.9575 58.5922 95.7592C59.3495 95.5538 59.9382 95.0587 60.3581 94.2736C60.6542 93.7203 60.7917 93.1063 60.7706 92.4318C60.7367 91.7504 60.5768 91.1337 60.2909 90.5818L56.6688 87.4364C56.0998 87.4448 55.5393 87.6235 54.9872 87.9726C54.4421 88.3089 53.9974 88.7988 53.6532 89.4422Z" fill="#6C757D"/>
<path d="M67.359 85.4462C66.9333 86.0742 66.4686 86.4727 65.9649 86.6415C65.4612 86.8104 64.9431 86.7134 64.4106 86.3506C64.2532 86.2434 64.0961 86.1099 63.9391 85.95L59.0985 80.7984L58.116 82.2477L57.1202 81.172L58.1027 79.7227L56.0626 77.5648L56.9836 76.2061L59.0238 78.364L60.2273 76.5887L61.2231 77.6643L60.0196 79.4397L64.6188 84.3209C64.7477 84.444 64.8605 84.5386 64.9574 84.6045C65.502 84.9755 65.9708 84.8712 66.3638 84.2915C66.593 83.9533 66.6845 83.6096 66.6382 83.2603L67.838 83.8393C67.8707 84.3912 67.7111 84.9269 67.359 85.4462Z" fill="#6C757D"/>
<path d="M72.586 78.5096C71.5665 79.7299 70.4319 80.4254 69.1822 80.5962C67.9419 80.7559 66.7716 80.3746 65.6715 79.4526C64.3132 78.3142 63.5208 76.8983 63.2943 75.2047C63.0677 73.5112 63.4876 72.0263 64.5539 70.7501C65.4331 69.6977 66.4704 69.13 67.6659 69.047C68.8613 68.964 69.9811 69.36 71.0251 70.2349C71.3619 70.5172 71.7005 70.8771 72.041 71.3148L66.5133 77.9311C66.5357 77.9499 66.5928 78.0073 66.6845 78.1031C66.7743 78.1784 66.8416 78.2349 66.8865 78.2725C67.5601 78.837 68.3337 79.0761 69.2073 78.9899C70.081 78.9037 70.8826 78.4239 71.6122 77.5507C72.3604 76.6551 72.7467 75.6559 72.7709 74.5532L73.9973 74.8673C73.9637 76.2096 73.4933 77.4237 72.586 78.5096ZM65.6994 77.0206L70.245 71.5798C70.1739 71.4821 70.0767 71.3815 69.9532 71.278C69.2572 70.6947 68.5023 70.4332 67.6885 70.4935C66.884 70.5426 66.1544 70.9589 65.4997 71.7426C64.8917 72.4703 64.6187 73.3454 64.6805 74.3679C64.7311 75.3811 65.0707 76.2653 65.6994 77.0206Z" fill="#6C757D"/>
<path d="M82.021 73.5907L81.5197 72.0942C81.7966 72.0169 82.0979 71.8433 82.4236 71.5734C82.8728 71.2011 83.0528 70.5953 82.9636 69.7561L82.7375 67.8031L74.3736 60.8646L75.7045 59.7618L82.4696 65.4567L81.1122 55.2805L82.5273 54.1078L84.4064 69.1312C84.6148 70.823 84.2249 72.0783 83.2366 72.8973C82.8323 73.2324 82.4271 73.4635 82.021 73.5907Z" fill="#6C757D"/>
<path d="M92.7538 60.4969C91.5029 61.3025 90.2791 61.5853 89.0826 61.3454C87.8903 61.0853 86.9089 60.3583 86.1384 59.1645C85.2089 57.7246 84.8668 56.159 85.1121 54.4678C85.3696 52.7688 86.1974 51.469 87.5954 50.5686C88.8463 49.763 90.0679 49.4902 91.2601 49.7504C92.4646 50.0026 93.4522 50.7256 94.2227 51.9194C95.1522 53.3593 95.4881 54.9289 95.2306 56.6279C94.9774 58.3068 94.1518 59.5965 92.7538 60.4969ZM91.9922 59.2363C92.9733 58.6044 93.5288 57.663 93.6588 56.4119C93.7809 55.1485 93.4924 53.9753 92.7933 52.8923C92.2452 52.0431 91.5792 51.5224 90.7955 51.3303C90.0037 51.1258 89.1909 51.2921 88.357 51.8292C87.3759 52.461 86.8243 53.4087 86.7023 54.672C86.5723 55.9231 86.8568 57.0902 87.5559 58.1732C88.104 59.0224 88.7739 59.5492 89.5656 59.7537C90.3494 59.9458 91.1583 59.7734 91.9922 59.2363Z" fill="#6C757D"/>
<path d="M95.8988 46.0181L97.3818 45.3147L98.9853 52.2373C99.077 52.5991 99.1512 52.8394 99.2079 52.9584C99.6996 53.9895 100.604 54.1925 101.923 53.5673C102.885 53.1109 103.628 52.1427 104.15 50.6629L102.345 42.9608L103.828 42.2574L106.279 52.8385L104.796 53.5419L104.45 52.0038C103.833 53.6255 102.971 54.6989 101.864 55.2241C100.994 55.6367 100.204 55.7601 99.4948 55.5941C98.779 55.4149 98.2415 54.9485 97.8822 54.195C97.7876 53.9967 97.6945 53.7167 97.6029 53.355L95.8988 46.0181Z" fill="#6C757D"/>
<path d="M111.136 50.9164L109.586 51.4589L108.264 40.6828L109.814 40.1403L110.004 41.7957C110.318 41.0188 110.708 40.3935 111.175 39.9197C111.638 39.4321 112.282 39.0436 113.108 38.7543L113.32 40.4718C113.136 40.4745 112.864 40.5385 112.506 40.6638C111.955 40.8567 111.474 41.2035 111.063 41.7043C110.665 42.2002 110.375 42.7362 110.191 43.3124L111.136 50.9164Z" fill="#6C757D"/>
<path d="M125.719 47.112C123.767 47.4746 122.187 47.1355 120.979 46.0946L121.8 44.7811C122.186 45.1709 122.726 45.4724 123.42 45.6858C124.112 45.8848 124.824 45.9163 125.556 45.7804C126.274 45.6471 126.814 45.3607 127.176 44.9212C127.553 44.4791 127.694 44.0065 127.599 43.5032C127.531 43.1438 127.284 42.8621 126.859 42.6582C126.434 42.4544 125.931 42.3096 125.35 42.224C124.781 42.1214 124.203 42.0129 123.617 41.8985C123.045 41.7815 122.535 41.5635 122.088 41.2446C121.639 40.9113 121.364 40.4787 121.263 39.9467C121.091 39.0409 121.298 38.2135 121.885 37.4646C122.471 36.7156 123.374 36.2279 124.594 36.0013C125.456 35.8413 126.269 35.8613 127.035 36.0614C127.813 36.2444 128.428 36.547 128.879 36.9692L128.154 38.198C127.836 37.8551 127.348 37.5959 126.691 37.4203C126.048 37.242 125.403 37.2129 124.757 37.3329C124.083 37.4582 123.566 37.7105 123.207 38.0898C122.862 38.4663 122.733 38.8847 122.821 39.3448C122.886 39.6899 123.13 39.9572 123.552 40.1467C123.972 40.3218 124.466 40.4607 125.035 40.5633C125.616 40.6489 126.194 40.7574 126.769 40.8888C127.355 41.0032 127.875 41.2342 128.327 41.5819C128.776 41.9151 129.054 42.3621 129.16 42.9229C129.34 43.8719 129.121 44.7536 128.503 45.568C127.896 46.3654 126.968 46.88 125.719 47.112Z" fill="#6C757D"/>
<path d="M135.164 45.7785C134.407 45.8485 133.803 45.7428 133.35 45.4616C132.897 45.1802 132.64 44.7192 132.578 44.0785C132.56 43.8892 132.562 43.6834 132.584 43.4609L133.449 36.4611L131.704 36.6227L131.894 35.1727L133.639 35.0111L133.993 32.0694L135.629 31.9179L135.275 34.8596L137.413 34.6616L137.223 36.1117L135.085 36.3096L134.274 42.9519C134.262 43.1293 134.261 43.2763 134.273 43.3928C134.336 44.048 134.717 44.3433 135.415 44.2787C135.822 44.241 136.145 44.0935 136.385 43.8363L136.708 45.1286C136.304 45.504 135.789 45.7206 135.164 45.7785Z" fill="#6C757D"/>
<path d="M136.96 49.2109L137.522 47.7409C137.786 47.8578 138.13 47.9161 138.553 47.9159C139.138 47.9156 139.662 47.5644 140.126 46.8622L141.193 45.2165L139.126 34.557L140.857 34.5562L142.476 43.2417L147.893 34.5526L149.734 34.5517L141.641 47.3002C140.727 48.7338 139.627 49.4509 138.341 49.4515C137.815 49.4518 137.355 49.3715 136.96 49.2109Z" fill="#6C757D"/>
<path d="M150.025 45.3878L148.385 45.261L152.664 30.9223L154.303 31.0491L150.025 45.3878Z" fill="#6C757D"/>
<path d="M158.393 46.6454C156.821 46.3808 155.642 45.7527 154.856 44.761C154.085 43.7716 153.815 42.5704 154.047 41.1571C154.333 39.4122 155.147 38.0156 156.49 36.9671C157.832 35.9187 159.325 35.5329 160.969 35.8096C162.325 36.0377 163.344 36.6464 164.026 37.6356C164.708 38.6247 164.94 39.7899 164.72 41.131C164.649 41.5636 164.512 42.037 164.309 42.5512L155.787 41.1167C155.783 41.1455 155.762 41.2236 155.727 41.351C155.708 41.4663 155.694 41.5528 155.684 41.6105C155.542 42.4758 155.732 43.2634 156.252 43.9735C156.773 44.6835 157.596 45.1332 158.721 45.3225C159.874 45.5167 160.932 45.3465 161.894 44.8119L162.25 46.0278C161.077 46.675 159.791 46.8809 158.393 46.6454ZM156.155 39.9561L163.163 41.1357C163.211 41.0252 163.248 40.8906 163.274 40.732C163.42 39.8379 163.26 39.0551 162.792 38.3837C162.339 37.7146 161.607 37.2951 160.598 37.1252C159.661 36.9674 158.768 37.1727 157.919 37.7412C157.072 38.2951 156.485 39.0334 156.155 39.9561Z" fill="#6C757D"/>
<path d="M229.979 44.9412H212.233L209.973 48.8767L219.541 49.5499L219.183 50.2058L208.865 50.879L205.803 56.2472L215.405 56.8686L215.03 57.5159L182.284 59.6649L180.835 62.2541L211.252 64.17L210.886 64.8173L193.95 65.8185L195.238 70.6775L207.176 71.4111L206.801 72.0584L195.835 72.8437L196.867 76.9433H217.768C222.816 76.9433 231.889 73.5687 232.938 66.483C233.041 65.8233 233.012 65.1494 232.852 64.5014C232.692 63.8535 232.404 63.2449 232.006 62.7123C231.608 62.1796 231.107 61.7337 230.535 61.4014C229.962 61.0691 229.33 60.8571 228.674 60.7782C235.215 58.914 237.432 54.4779 237.901 52.7087C239.47 46.9176 235.437 44.9412 229.979 44.9412ZM221.23 66.6815C220.377 68.9945 217.469 69.8144 215.857 69.8144H212.387L216.028 63.4192H219.49C220.548 63.4192 222.057 64.5325 221.23 66.6815ZM227.421 54.4348C226.645 56.3249 224.547 57.257 222.534 57.2656H219.507L222.986 51.1638H225.911C227.173 51.2069 228.129 52.7087 227.421 54.4348Z" fill="#CF202E"/>
<path d="M172.452 76.9519L187.503 76.9432L189.601 73.2839L173.91 74.3972L172.452 76.9519Z" fill="#CF202E"/>
<path d="M202.768 44.9498L190.667 44.9412L189.217 47.5044L203.68 48.4193L202.768 44.9498Z" fill="#CF202E"/>
<path d="M204.371 51.1638L186.48 52.303L185.022 54.8663L205.693 56.2472L204.371 51.1638Z" fill="#CF202E"/>
<path d="M176.639 69.59L191.213 70.4185L193.839 65.8184L178.097 67.0267L176.639 69.59Z" fill="#CF202E"/>
</svg>
